mtllib materials.mtl
v -0.05479079 0.01892495 0.01914169
v -0.05479079 0.07892489 0.01914167
v -0.05479079 0.07892489 0.03914167
v -0.05479079 0.01892495 0.03914168
v 0.05520922 0.01892495 0.01914172
v 0.05520922 0.01892495 0.03914171
v 0.05520922 0.07892489 0.0391417
v 0.05520922 0.07892489 0.0191417
v -0.05479079 -0.251075 0.03914168
v -0.05479079 -0.251075 0.01914169
v -0.05479079 -0.231075 0.01914169
v -0.05479079 -0.231075 0.03914168
v 0.05520922 -0.251075 0.0391417
v 0.05520922 -0.231075 0.0391417
v 0.05520922 -0.231075 0.0191417
v 0.05520922 -0.251075 0.0191417
v 0.02728149 0.1033387 -0.225128
v 0.03153059 0.107923 -0.2378138
v 0.02911305 0.1111114 0.03487749
v 0.0254803 0.1053848 0.02246746
v 0.03724411 0.09526324 -0.2404752
v 0.03466108 0.09875822 0.03895386
v 0.03299505 0.09067869 -0.2277894
v 0.03102833 0.09303164 0.02654381
v 0.01191995 0.09983659 -0.1536721
v 0.01019296 0.1066474 -0.1659452
v 0.01078406 0.1109053 0.03384578
v 0.008247495 0.1025246 0.02274033
v 0.01715577 0.09632599 -0.1726526
v 0.01792219 0.1000909 0.02289073
v 0.01888275 0.08951521 -0.1603794
v 0.01736495 0.09299672 0.02784806
v -0.05479085 -0.311075 -0.2508584
v 0.05520916 -0.311075 -0.2508584
v 0.05520922 0.108925 -0.2508583
v -0.05479079 0.108925 -0.2508583
v -0.05479079 -0.311075 0.02914178
v -0.05479074 0.108925 0.02914174
v 0.05520928 0.108925 0.02914172
v 0.05520922 -0.311075 0.02914177
v -0.05979085 -0.3210751 0.03414167
v -0.05979085 0.118925 0.03414164
v -0.0497908 0.118925 0.03414164
v -0.0497908 -0.3210751 0.03414164
v -0.0597907 -0.3210751 -0.2558583
v -0.04979074 -0.3210751 -0.2558583
v -0.04979074 0.118925 -0.2558583
v -0.05979073 0.118925 -0.2558583
v 0.05020916 -0.3210751 0.03414176
v 0.05020916 0.118925 0.03414173
v 0.06020921 0.118925 0.03414173
v 0.06020921 -0.3210751 0.03414173
v 0.05020928 -0.3210751 -0.2558582
v 0.06020927 -0.3210751 -0.2558582
v 0.06020927 0.118925 -0.2558582
v 0.05020928 0.118925 -0.2558582
v -0.03196752 0.1023518 -0.2322717
v -0.0311524 0.1092294 -0.2446019
v -0.03848258 0.106372 0.02452847
v -0.02622795 0.09751594 -0.2508101
v -0.03628138 0.1111946 0.03763942
v -0.02704298 0.09063816 -0.23848
v -0.03301904 0.0938592 0.02821378
v 0.02129209 0.1029983 -0.2345727
v 0.02185664 0.1093401 -0.2472005
v 0.01849145 0.1090966 0.0337798
v 0.01792219 0.1000909 0.02289073
v 0.0314759 0.0999099 -0.2515065
v 0.03091136 0.09356809 -0.2388786
v 0.02754354 0.09186232 0.02919316
v 0.02984878 0.09541023 0.03650193
v -0.006478071 0.101734 -0.2219
v -0.008240253 0.1089083 -0.2339592
v -0.004501373 0.1084601 0.03393391
v -0.007023215 0.1010426 0.02216011
v -0.0002053678 0.09946001 -0.2407543
v 0.005430222 0.09911954 0.03769115
v 0.001556844 0.09228575 -0.228695
v 0.002908379 0.0917021 0.02591735
v -0.01216221 0.09776616 -0.2278683
v -0.01190978 0.1088345 -0.2366676
v -0.01056814 0.1108146 0.03603992
v -0.01525089 0.1039978 0.02456802
v -0.007895082 0.10034 -0.2472375
v -0.008147538 0.08927155 -0.2384382
v -0.008068919 0.09246373 0.0284901
v 0.002908379 0.0917021 0.02591735
v -0.05479079 -0.281075 0.0391417
v -0.05479079 -0.281075 0.0191417
v -0.05479079 -0.261075 0.0191417
v -0.05479079 -0.261075 0.0391417
v 0.05520922 -0.281075 0.03914171
v 0.05520922 -0.261075 0.03914171
v 0.05520922 -0.261075 0.01914172
v 0.05520922 -0.281075 0.01914172
v 0.01859483 0.1054471 -0.235703
v 0.0228267 0.1089143 -0.248744
v 0.02363518 0.1073877 0.03226735
v 0.02242717 0.1021379 0.01919134
v 0.02965394 0.09657514 -0.2498092
v 0.02984878 0.09541023 0.03650193
v 0.02542204 0.09310794 -0.2367682
v 0.02864078 0.09016049 0.02342592
v -0.05479079 -0.321075 0.02914178
v -0.05479085 0.1189251 0.02914204
v -0.05479088 0.1189251 0.03914198
v -0.05479085 -0.3210752 0.03914182
v 0.05520934 -0.321075 0.02914184
v 0.0552094 -0.3210752 0.03914189
v 0.0552094 0.1189251 0.03914194
v 0.05520934 0.1189251 0.02914201
vn -1 -7.327471E-15 -2.00801E-07
vn 1 7.327471E-15 2.00801E-07
vn 2.622683E-07 1.229346E-07 -1
vn -2.622683E-07 -1.229346E-07 1
vn -1.312318E-09 -1 1.192093E-07
vn 1.312318E-09 1 -1.192093E-07
vn -1 6.146729E-08 -8.742279E-08
vn 1 -6.146729E-08 8.742279E-08
vn -1.430846E-14 -1 1.636697E-07
vn 1.430846E-14 1 -1.636697E-07
vn -8.565538E-08 1.748456E-07 1
vn 8.565538E-08 -1.748456E-07 -1
vn -0.7945675 0.6070462 -0.01255033
vn 0.9117695 0.4106893 0.003286569
vn 0.794578 -0.6070136 0.01342318
vn -0.9117714 -0.4106853 -0.003245295
vn -0.8640056 -0.3058598 -0.3999302
vn -0.8832393 -0.2702135 0.3832401
vn -0.9985784 0.05251183 -0.009148514
vn 0.8262323 0.563149 -0.0142657
vn 0.9679473 0.2511338 0.003159885
vn -0.7770365 -0.6294554 -0.0004100058
vn -0.8617918 -0.4851959 -0.1479862
vn -0.7430942 -0.4414874 0.5028916
vn 0.9967961 -0.0799505 -0.002367321
vn 0.8995188 0.2005623 0.3881247
vn -1.192093E-07 9.453527E-08 -1
vn 1.192093E-07 1.175321E-07 1
vn -1.520099E-07 -1 -2.722219E-15
vn 1.764421E-07 1 -1.90324E-16
vn -1 1.792804E-07 1.707203E-07
vn 1 -1.127574E-07 -1.783229E-07
vn 1.397992E-06 3.386627E-08 1
vn -7.037439E-07 -3.386631E-08 -1
vn -1 -2.915566E-08 -4.407404E-07
vn 1 1.684553E-09 1.806123E-07
vn 1.490115E-06 -1 -8.983124E-10
vn 2.23517E-06 1 -3.763818E-08
vn 1.397992E-06 3.386627E-08 1
vn -7.037439E-07 -3.386631E-08 -1
vn -1 -2.915566E-08 -4.407404E-07
vn 1 1.684553E-09 1.806123E-07
vn 1.490115E-06 -1 -8.983124E-10
vn 2.23517E-06 1 -3.763818E-08
vn -0.9971382 0.07083836 -0.02640615
vn 0.9244123 0.3811326 0.01414506
vn 0.996804 -0.07642502 0.02325931
vn -0.9195682 -0.3925835 -0.01651123
vn -0.9356416 -0.2782974 -0.2170833
vn -0.9091334 -0.3175991 0.2694574
vn -0.8886505 0.4581771 -0.01933916
vn 0.9849056 0.171096 0.02621353
vn -0.9973093 0.07231244 -0.01205153
vn 0.7020825 0.7120385 0.009025393
vn 0.9978321 -0.06468479 0.01212439
vn -0.6752422 -0.7374409 -0.01513038
vn -0.731953 -0.5951982 -0.3316382
vn -0.727597 -0.5055625 0.4636909
vn 0.7680652 0.6402111 0.01434158
vn 0.8419737 -0.5395062 -0.003672251
vn -0.998621 0.05211402 0.006345626
vn 0.7217799 0.692029 -0.01138591
vn 0.9985475 -0.0522426 -0.0131793
vn -0.7227948 -0.6910625 -0.0005982485
vn -0.8134363 -0.5443416 -0.2049722
vn -0.6892157 -0.5372868 0.4861118
vn -0.9636641 0.2670149 -0.007381114
vn 0.9004014 0.434994 -0.007588415
vn 0.9997396 -0.02282014 -2.171315E-05
vn -0.8723215 -0.4889178 0.003815743
vn -0.958693 -0.1632906 -0.2329034
vn -0.7952709 -0.3201229 0.5148453
vn 0.8137262 0.5810844 -0.01380789
vn -0.07583675 -0.9967123 -0.02851955
vn 0.1904835 -0.3512084 0.9167163
vn -1 -1.133783E-07 -8.742276E-08
vn 1 1.133783E-07 8.742276E-08
vn 1.748455E-07 -1 1.636697E-07
vn -1.748455E-07 1 -1.636697E-07
vn -8.565538E-08 1.748456E-07 1
vn 8.565538E-08 -1.748456E-07 -1
vn -0.8483136 0.5293553 0.01212282
vn 0.8812295 0.4726882 0.0006840921
vn 0.848333 -0.5293818 -0.00928256
vn -0.8815933 -0.4719673 0.00633548
vn -0.8230438 -0.4226334 -0.3794468
vn -0.894236 -0.3806693 0.2354418
vn -1 -6.773039E-08 -3.198139E-06
vn 1 3.185471E-12 -6.500826E-06
vn 1.35465E-07 7.111918E-07 -1
vn -1.3527E-07 -4.741573E-07 1
vn 5.887426E-08 -1 -2.521266E-05
vn -2.730674E-08 1 -1.192093E-07
vt -0.1035767 0.1140389
vt -0.1070641 0.1189213
vt -0.1086916 0.1177588
vt -0.1052041 0.1128764
vt 0.1035767 0.1140389
vt 0.1052041 0.1128764
vt 0.1086916 0.1177588
vt 0.1070641 0.1189213
vt -0.1189588 0.1042008
vt -0.1140395 0.1140395
vt -0.119406 0.1167227
vt -0.1243254 0.106884
vt 0.1189588 0.1042008
vt 0.1243254 0.106884
vt 0.119406 0.1167227
vt 0.1140395 0.1140395
vt 0.03040482 0.03161561
vt 0.03228831 0.03094294
vt 0.03598801 0.04130211
vt 0.03410453 0.04197478
vt -0.03040482 0.03161561
vt -0.03410453 0.04197478
vt -0.03598801 0.04130211
vt -0.03228831 0.03094294
vt -0.08951068 0.09090565
vt -0.08788321 0.09206813
vt -0.08904569 0.0936956
vt -0.09067316 0.09253313
vt 0.08951068 0.09090565
vt 0.09067316 0.09253313
vt 0.08904569 0.0936956
vt 0.08788322 0.09206814
vt 0.03228831 0.03094294
vt 0.03598801 0.04130211
vt 0.03410453 0.04197478
vt 0.03040482 0.03161561
vt -0.03228831 0.03094294
vt -0.03040483 0.03161561
vt -0.03410453 0.04197478
vt -0.03598801 0.04130211
vt 0.09480928 0.092126
vt 0.09659813 0.09302043
vt 0.09167878 0.1028591
vt 0.08988993 0.1019647
vt -0.09480928 0.092126
vt -0.08988993 0.1019647
vt -0.09167878 0.1028591
vt -0.09659813 0.09302043
vt -0.04824811 0.1500904
vt -0.0472662 0.1511073
vt -0.07294838 0.1419318
vt -0.07155097 0.1417188
vt 0.1256518 0.02386201
vt 0.1242406 0.02395346
vt 0.128135 -0.003720134
vt 0.1294281 -0.003147345
vt 0.04688304 0.1505498
vt 0.0478646 0.1495326
vt 0.07180299 0.1409361
vt 0.07320051 0.1411485
vt -0.1241572 0.02266174
vt -0.1255685 0.02257033
vt -0.1289051 -0.001964878
vt -0.1276121 -0.002537704
vt -0.1245542 0.06885847
vt -0.1245968 0.07027205
vt -0.1260104 0.0702294
vt -0.1259678 0.06881583
vt 0.01566263 0.1492458
vt 0.0146577 0.1502409
vt 0.01366266 0.149236
vt 0.01466759 0.1482409
vt -0.09058382 0.1358972
vt -0.08993361 0.1371338
vt -0.1068188 0.1264478
vt -0.105425 0.126352
vt 0.09785857 -0.04448505
vt 0.09698878 -0.04336995
vt 0.08936346 -0.06138033
vt 0.09010857 -0.06290479
vt 0.1199638 0.07918949
vt 0.1200393 0.0777773
vt 0.1305649 0.06216796
vt -0.07842179 -0.05282873
vt -0.07907562 -0.05407799
vt -0.069583 -0.0689541
vt -0.06820767 -0.06864329
vt -0.1174506 0.005342404
vt -0.1182557 0.006505066
vt -0.1194184 0.005699943
vt -0.1186133 0.004537285
vt 0.1332031 0.03846493
vt 0.1341584 0.03950767
vt 0.1321603 0.03942028
vt 0.101751 0.129589
vt 0.1017006 0.1304548
vt 0.08483426 0.1403566
vt 0.1348591 0.06284352
vt 0.1333169 0.06355121
vt 0.1328594 0.06281451
vt -0.08944274 0.08944272
vt -0.08452339 0.09928142
vt -0.1220893 0.1180644
vt -0.1270087 0.1082257
vt 0.08944273 0.08944272
vt 0.1270087 0.1082257
vt 0.1220893 0.1180644
vt 0.08452338 0.09928142
vt 0.004977764 0.04069668
vt 0.03134655 0.03127926
vt 0.03504625 0.04163843
vt 0.008677464 0.05105585
vt -0.004977767 0.04069668
vt -0.008677466 0.05105584
vt -0.03504625 0.04163843
vt -0.03134655 0.03127926
vt -0.06242495 0.1028792
vt -0.08683695 0.137056
vt -0.1096215 0.1207813
vt -0.0852095 0.08660452
vt 0.06242496 0.1028792
vt 0.08520951 0.08660452
vt 0.1096215 0.1207813
vt 0.08683696 0.137056
vt 0.08877192 0.08854824
vt 0.1281267 0.1082256
vt 0.1276795 0.1091201
vt 0.08832471 0.08944268
vt -0.08877189 0.08854829
vt -0.08832468 0.08944272
vt -0.1276795 0.1091201
vt -0.1281267 0.1082257
vt -0.08503518 0.08550009
vt -0.06143692 0.102356
vt -0.08701142 0.1381603
vt -0.1106097 0.1213044
vt 0.08503515 0.08550012
vt 0.1106097 0.1213044
vt 0.08701138 0.1381603
vt 0.06143689 0.102356
vt 0.0316493 0.03064041
vt 0.03198563 0.03158216
vt 0.004675123 0.04133592
vt 0.004338791 0.04039418
vt -0.03164914 0.03063989
vt -0.004338634 0.04039366
vt -0.00467497 0.0413354
vt -0.03198548 0.03158163
vt 0.08385257 0.09838694
vt 0.1232074 0.1180643
vt 0.1227602 0.1189588
vt 0.08340536 0.09928138
vt -0.08385254 0.09838699
vt -0.08340533 0.09928142
vt -0.1227601 0.1189588
vt -0.1232074 0.1180644
vt -0.08503518 0.08550008
vt -0.06143692 0.102356
vt -0.08701143 0.1381603
vt -0.1106097 0.1213043
vt 0.08503516 0.08550011
vt 0.1106097 0.1213044
vt 0.08701138 0.1381603
vt 0.0614369 0.102356
vt 0.035349 0.04099957
vt 0.03568534 0.04194132
vt 0.008374831 0.05169508
vt 0.008038498 0.05075333
vt -0.03534885 0.04099904
vt -0.008038348 0.05075282
vt -0.008374684 0.05169456
vt -0.03568519 0.04194079
vt -0.0847766 0.1405357
vt -0.08413816 0.1417976
vt -0.1063024 0.1265111
vt 0.1285156 0.03797549
vt 0.1271421 0.03831222
vt 0.1348819 0.01047324
vt 0.08203303 0.1419534
vt 0.08268143 0.1406966
vt 0.1051002 0.1262357
vt -0.1268074 0.03229483
vt -0.1281675 0.03190777
vt -0.1333082 0.006735902
vt -0.1320291 0.006132829
vt -0.1259155 0.06939492
vt -0.1261231 0.07079381
vt -0.127522 0.07058619
vt -0.1273144 0.0691873
vt -0.08283202 0.1195139
vt -0.08424546 0.119467
vt -0.08278513 0.1181005
vt -0.05486712 0.1541345
vt -0.0809662 0.1433762
vt -0.07955201 0.1433833
vt 0.1090998 0.1051702
vt 0.1267996 0.08358651
vt 0.1287579 0.083993
vt -0.08263855 0.1423664
vt -0.08192299 0.1435862
vt -0.1055032 0.1283026
vt -0.1040989 0.1281352
vt 0.06388649 -0.04889777
vt 0.0632287 -0.04764584
vt 0.04433127 -0.06907712
vt 0.08177573 0.1423688
vt 0.08248395 0.1411447
vt 0.104812 0.1263047
vt -0.05685323 -0.04617307
vt -0.05745705 -0.04745082
vt -0.03866068 -0.06505097
vt -0.03733734 -0.06455497
vt -0.1061966 0.01964758
vt -0.1070673 0.020762
vt -0.1081817 0.01989132
vt -0.107311 0.0187769
vt 0.1302489 -0.006822214
vt 0.1315703 -0.006318462
vt 0.1303924 -0.004958462
vt 0.1297451 -0.005500806
vt 0.08259578 -0.0433327
vt 0.06608017 -0.06693253
vt 0.06770001 -0.06771566
vt 0.07348409 0.1444698
vt 0.07431632 0.1446133
vt 0.04746356 0.1550367
vt -0.08277856 0.1410005
vt -0.08213985 0.1422454
vt -0.104728 0.1278391
vt -0.1033288 0.127836
vt 0.06598517 -0.05549095
vt 0.06556316 -0.05414278
vt 0.04597914 -0.07394427
vt 0.0472221 -0.07461558
vt 0.08005875 0.1424216
vt 0.08070953 0.1411817
vt 0.1022808 0.1276562
vt 0.103681 0.1276709
vt -0.06668977 -0.05210758
vt -0.06713994 -0.05344628
vt -0.05059288 -0.07138648
vt -0.04933707 -0.07074021
vt -0.1125458 0.006217296
vt -0.1135121 0.007249943
vt -0.1145447 0.006283691
vt -0.1135785 0.005251045
vt 0.1279613 -0.01285368
vt 0.1292176 -0.01220438
vt 0.1285683 -0.01094804
vt 0.127312 -0.01159734
vt -0.06679857 0.1530543
vt -0.06647716 0.1544033
vt -0.09111127 0.1427056
vt -0.08973964 0.1425019
vt 0.1261814 0.01225348
vt 0.1251967 0.01326856
vt 0.1274896 -0.01498692
vt 0.08432603 0.1387314
vt 0.084428 0.1373209
vt 0.1066479 0.1225261
vt -0.1175518 -0.01018273
vt -0.1183225 -0.01136694
vt -0.1152769 -0.03643575
vt -0.1138765 -0.03662318
vt -0.1204378 0.09301883
vt -0.1209594 0.09433338
vt -0.1222739 0.09381187
vt -0.1217524 0.09249733
vt 0.1046392 0.1070744
vt 0.1046442 0.1084886
vt 0.103225 0.1070794
vt 0.09680534 -0.04166013
vt 0.0832146 -0.06539492
vt 0.08483843 -0.06735881
vt 0.02504356 0.02499572
vt 0.02520286 0.02611447
vt -0.0006769333 0.03496236
vt 0.1358734 0.09631971
vt 0.1334137 0.09698579
vt 0.1339045 0.09596793
vt -0.08776698 0.08846444
vt -0.08613952 0.08962692
vt -0.08730198 0.09125438
vt -0.08892945 0.09009191
vt 0.08776698 0.08846444
vt 0.08892945 0.0900919
vt 0.08730198 0.09125438
vt 0.08613952 0.08962692
vt 0.03228832 0.03094297
vt 0.03598802 0.04130213
vt 0.03410453 0.0419748
vt 0.03040483 0.03161564
vt -0.03228832 0.03094297
vt -0.03040483 0.03161564
vt -0.03410453 0.0419748
vt -0.03598802 0.04130213
vt 0.092126 0.09078436
vt 0.09391485 0.09167879
vt 0.0889955 0.1015175
vt 0.08720665 0.1006231
vt -0.092126 0.09078436
vt -0.08720665 0.1006231
vt -0.0889955 0.1015175
vt -0.09391485 0.09167879
vt -0.04835207 0.1550365
vt -0.04730849 0.1559716
vt -0.07365833 0.1462067
vt -0.0722574 0.1461784
vt 0.1204939 -0.001892612
vt 0.1190989 -0.001660653
vt 0.116432 -0.03016752
vt 0.1178136 -0.02986617
vt 0.04734219 0.1552435
vt 0.04838482 0.1543067
vt 0.07277186 0.1452272
vt 0.07417335 0.1452532
vt -0.1189005 -0.003717668
vt -0.1202955 -0.003948708
vt -0.1175639 -0.0292964
vt -0.1161825 -0.0295984
vt -0.1215645 0.04910972
vt -0.1217021 0.05051722
vt -0.1231096 0.05037968
vt -0.122972 0.04897217
vt -0.1276888 0.04850319
vt -0.1288744 0.04773226
vt -0.1281035 0.04654666
vt -0.1269179 0.04731758
vt -0.08462856 0.08579046
vt -0.1102032 0.1215946
vt -0.1110169 0.1210134
vt -0.08544227 0.08520921
vt 0.08462783 0.0857913
vt 0.08544156 0.08521004
vt 0.1110158 0.1210146
vt 0.110202 0.1215958
vt -0.08854832 0.0889955
vt -0.08362897 0.09883422
vt -0.1229838 0.1185116
vt -0.1279031 0.1086729
vt 0.0885483 0.08899549
vt 0.1279031 0.1086729
vt 0.1229838 0.1185116
vt 0.08362894 0.09883421
vt 0.03134408 0.03127994
vt 0.03228582 0.03094359
vt 0.03598566 0.04130273
vt 0.03504391 0.04163908
vt -0.0313466 0.03127927
vt -0.0350463 0.04163845
vt -0.03598804 0.04130212
vt -0.03228834 0.03094293
o group1173329792
g mesh1173329792
usemtl mat17
f 4/4/1 3/3/1 2/2/1 1/1/1
f 8/8/2 7/7/2 6/6/2 5/5/2
f 2/12/3 8/11/3 5/10/3 1/9/3
f 6/16/4 7/15/4 3/14/4 4/13/4
f 5/20/5 6/19/5 4/18/5 1/17/5
f 3/24/6 7/23/6 8/22/6 2/21/6
o group36777276
g mesh36777276
usemtl mat17
f 12/28/7 11/27/7 10/26/7 9/25/7
f 16/32/8 15/31/8 14/30/8 13/29/8
f 10/36/9 16/35/9 13/34/9 9/33/9
f 14/40/10 15/39/10 11/38/10 12/37/10
f 13/44/11 14/43/11 12/42/11 9/41/11
f 11/48/12 15/47/12 16/46/12 10/45/12
o group1732650196
g mesh1732650196
usemtl mat18
f 36/104/27 35/103/27 34/102/27 33/101/27
f 40/108/28 39/107/28 38/106/28 37/105/28
f 34/112/29 40/111/29 37/110/29 33/109/29
f 38/116/30 39/115/30 35/114/30 36/113/30
f 37/120/31 38/119/31 36/118/31 33/117/31
f 35/124/32 39/123/32 40/122/32 34/121/32
o group453196978
g mesh453196978
usemtl mat20
f 44/128/33 43/127/33 42/126/33 41/125/33
f 48/132/34 47/131/34 46/130/34 45/129/34
f 42/136/35 48/135/35 45/134/35 41/133/35
f 46/140/36 47/139/36 43/138/36 44/137/36
f 45/144/37 46/143/37 44/142/37 41/141/37
f 43/148/38 47/147/38 48/146/38 42/145/38
o group1485198180
g mesh1485198180
usemtl mat20
f 52/152/39 51/151/39 50/150/39 49/149/39
f 56/156/40 55/155/40 54/154/40 53/153/40
f 50/160/41 56/159/41 53/158/41 49/157/41
f 54/164/42 55/163/42 51/162/42 52/161/42
f 53/168/43 54/167/43 52/166/43 49/165/43
f 51/172/44 55/171/44 56/170/44 50/169/44
o group261688492
g mesh261688492
usemtl mat17
f 91/284/76 90/283/76 89/282/76 88/281/76
f 95/288/77 94/287/77 93/286/77 92/285/77
f 89/292/78 95/291/78 92/290/78 88/289/78
f 93/296/79 94/295/79 90/294/79 91/293/79
f 92/300/80 93/299/80 91/298/80 88/297/80
f 90/304/81 94/303/81 95/302/81 89/301/81
o group764487084
g mesh764487084
usemtl mat20
f 107/332/88 106/331/88 105/330/88 104/329/88
f 111/336/89 110/335/89 109/334/89 108/333/89
f 105/340/90 111/339/90 108/338/90 104/337/90
f 109/344/91 110/343/91 106/342/91 107/341/91
f 108/348/92 109/347/92 107/346/92 104/345/92
f 106/352/93 110/351/93 111/350/93 105/349/93
o group1756999286
g mesh1756999286
usemtl mat18
f 20/52/13 19/51/13 18/50/13 17/49/13
f 19/56/14 22/55/14 21/54/14 18/53/14
f 22/60/15 24/59/15 23/58/15 21/57/15
f 24/64/16 20/63/16 17/62/16 23/61/16
f 17/68/17 18/67/17 21/66/17 23/65/17
f 24/72/18 22/71/18 19/70/18 20/69/18
o group503439673
g mesh503439673
usemtl mat18
f 28/76/19 27/75/19 26/74/19 25/73/19
f 27/80/20 30/79/20 29/78/20 26/77/20
f 32/83/21 31/82/21 29/81/21
f 32/87/22 28/86/22 25/85/22 31/84/22
f 25/91/23 26/90/23 29/89/23 31/88/23
f 32/94/24 27/93/24 28/92/24
f 29/97/25 30/96/25 32/95/25
f 32/100/26 30/99/26 27/98/26
o group833298882
g mesh833298882
usemtl mat18
f 59/175/45 58/174/45 57/173/45
f 61/178/46 60/177/46 58/176/46
f 63/181/47 62/180/47 60/179/47
f 63/185/48 59/184/48 57/183/48 62/182/48
f 57/189/49 58/188/49 60/187/49 62/186/49
f 63/192/50 61/191/50 59/190/50
f 59/195/51 61/194/51 58/193/51
f 61/198/52 63/197/52 60/196/52
o group813846520
g mesh813846520
usemtl mat18
f 67/202/53 66/201/53 65/200/53 64/199/53
f 66/205/54 68/204/54 65/203/54
f 70/208/55 69/207/55 68/206/55
f 70/212/56 67/211/56 64/210/56 69/209/56
f 64/216/57 65/215/57 68/214/57 69/213/57
f 70/220/58 71/219/58 66/218/58 67/217/58
f 66/223/59 71/222/59 68/221/59
f 68/226/60 71/225/60 70/224/60
o group207949895
g mesh207949895
usemtl mat18
f 75/230/61 74/229/61 73/228/61 72/227/61
f 74/234/62 77/233/62 76/232/62 73/231/62
f 77/238/63 79/237/63 78/236/63 76/235/63
f 79/242/64 75/241/64 72/240/64 78/239/64
f 72/246/65 73/245/65 76/244/65 78/243/65
f 79/250/66 77/249/66 74/248/66 75/247/66
o group1151146375
g mesh1151146375
usemtl mat18
f 83/254/67 82/253/67 81/252/67 80/251/67
f 82/257/68 84/256/68 81/255/68
f 86/260/69 85/259/69 84/258/69
f 86/264/70 83/263/70 80/262/70 85/261/70
f 80/268/71 81/267/71 84/266/71 85/265/71
f 86/271/72 82/270/72 83/269/72
f 82/274/73 87/273/73 84/272/73
f 84/277/74 87/276/74 86/275/74
f 86/280/75 87/279/75 82/278/75
o group1430320197
g mesh1430320197
usemtl mat18
f 99/308/82 98/307/82 97/306/82 96/305/82
f 98/312/83 101/311/83 100/310/83 97/309/83
f 101/316/84 103/315/84 102/314/84 100/313/84
f 103/320/85 99/319/85 96/318/85 102/317/85
f 96/324/86 97/323/86 100/322/86 102/321/86
f 103/328/87 101/327/87 98/326/87 99/325/87
