500 0 3 0                                           
26 Datakit CrossCadWare V18.2 2    24 Fri Jul 13 01:48:28 2018 
1 9.9999999999999995e-007 1e-010
-0 body $3 $6 $-1 $-1 #
-1 body $4 $7 $-1 $-1 #
-2 body $5 $8 $-1 $-1 #
-3 string_attrib-name_attrib-gen-attrib $-1 $-1 $-1 $0 keep keep_kept ignore 17 ATTRIB_XACIS_NAME 6 Part 2 #
-4 string_attrib-name_attrib-gen-attrib $-1 $-1 $-1 $1 keep keep_kept ignore 17 ATTRIB_XACIS_NAME 6 Part 1 #
-5 string_attrib-name_attrib-gen-attrib $-1 $-1 $-1 $2 keep keep_kept ignore 17 ATTRIB_XACIS_NAME 6 Part 3 #
-6 lump $-1 $-1 $9 $0 #
-7 lump $-1 $-1 $10 $1 #
-8 lump $-1 $-1 $11 $2 #
-9 shell $-1 $-1 $-1 $12 $-1 $6 #
-10 shell $-1 $-1 $-1 $176 $-1 $7 #         
-11 shell $-1 $-1 $-1 $268 $-1 $8 #         
-12 face $13 $14 $42 $9 $-1 $32 reversed single #
-13 rgb_color-st-attrib $-1 $-1 $-1 $12 0.901961 0.901961 0.901961 #
-14 face $15 $16 $43 $9 $-1 $33 forward single #
-15 rgb_color-st-attrib $-1 $-1 $-1 $14 0.901961 0.901961 0.901961 #
-16 face $17 $18 $44 $9 $-1 $34 forward single #
-17 rgb_color-st-attrib $-1 $-1 $-1 $16 0.901961 0.901961 0.901961 #
-18 face $19 $20 $45 $9 $-1 $35 forward single #
-19 rgb_color-st-attrib $-1 $-1 $-1 $18 0.901961 0.901961 0.901961 #
-20 face $21 $22 $46 $9 $-1 $36 forward single #
-21 rgb_color-st-attrib $-1 $-1 $-1 $20 0.901961 0.901961 0.901961 #
-22 face $23 $24 $47 $9 $-1 $37 reversed single #
-23 rgb_color-st-attrib $-1 $-1 $-1 $22 0.901961 0.901961 0.901961 #
-24 face $25 $26 $48 $9 $-1 $38 forward single #
-25 rgb_color-st-attrib $-1 $-1 $-1 $24 0.901961 0.901961 0.901961 #
-26 face $27 $28 $49 $9 $-1 $39 forward single #
-27 rgb_color-st-attrib $-1 $-1 $-1 $26 0.901961 0.901961 0.901961 #
-28 face $29 $30 $50 $9 $-1 $40 forward single #
-29 rgb_color-st-attrib $-1 $-1 $-1 $28 0.901961 0.901961 0.901961 #
-30 face $31 $-1 $51 $9 $-1 $41 reversed single #
-31 rgb_color-st-attrib $-1 $-1 $-1 $30 0.901961 0.901961 0.901961 #
-32 spline-surface $-1 forward { exactsur full nurbs 3 3 both open open none none 2 2 
0.0000000000 3 1.0000000000 3 
0.0000000000 3 1.0000000000 3 
-6.0386722367 0.0000000000 35.6925549026 1.0000000000 
-4.4885166839 0.0000000000 36.0377350002 0.8534510805 
-3.4950521840 0.0000000000 37.2767506679 0.8534510805 
-3.4950521840 0.0000000000 38.8648726839 1.0000000000 
-6.0386722367 -12.0773444733 35.6925549026 0.3333333333 
-4.4885166839 -8.9770333678 36.0377350002 0.2844836935 
-3.4950521840 -6.9901043680 37.2767506679 0.2844836935 
-3.4950521840 -6.9901043680 38.8648726839 0.3333333333 
6.0386722367 -12.0773444733 35.6925549026 0.3333333333 
4.4885166839 -8.9770333678 36.0377350002 0.2844836935 
3.4950521840 -6.9901043680 37.2767506679 0.2844836935 
3.4950521840 -6.9901043680 38.8648726839 0.3333333333 
6.0386722367 -0.0000000000 35.6925549026 1.0000000000 
4.4885166839 -0.0000000000 36.0377350002 0.8534510805 
3.4950521840 -0.0000000000 37.2767506679 0.8534510805 
3.4950521840 -0.0000000000 38.8648726839 1.0000000000 
0 
0 
0 
0 
0 
0 
0 
F 1.0000000000 F 0.0000000000 F 1.0000000000 F 0.0000000000} I I I I #
-33 spline-surface $-1 forward { exactsur full nurbs 3 3 both open open none none 2 2 
0.0000000000 3 1.0000000000 3 
0.0000000000 3 1.0000000000 3 
6.0386722367 0.0000000000 35.6925549026 1.0000000000 
8.4616739489 0.0000000000 35.1530142313 0.8534510805 
10.0145285511 0.0000000000 33.2163459536 0.8534510805 
10.0145285511 0.0000000000 30.7340000000 1.0000000000 
6.0386722367 12.0773444733 35.6925549026 0.3333333333 
8.4616739489 16.9233478978 35.1530142313 0.2844836935 
10.0145285511 20.0290571022 33.2163459536 0.2844836935 
10.0145285511 20.0290571022 30.7340000000 0.3333333333 
-6.0386722367 12.0773444733 35.6925549026 0.3333333333 
-8.4616739489 16.9233478978 35.1530142313 0.2844836935 
-10.0145285511 20.0290571022 33.2163459536 0.2844836935 
-10.0145285511 20.0290571022 30.7340000000 0.3333333333 
-6.0386722367 0.0000000000 35.6925549026 1.0000000000 
-8.4616739489 0.0000000000 35.1530142313 0.8534510805 
-10.0145285511 0.0000000000 33.2163459536 0.8534510805 
-10.0145285511 0.0000000000 30.7340000000 1.0000000000 
0 
0 
0 
0 
0 
0 
0 
F 1.0000000000 F 0.0000000000 F 1.0000000000 F 0.0000000000} I I I I #
-34 spline-surface $-1 forward { exactsur full nurbs 3 1 both open open none none 2 2 
0.0000000000 3 1.0000000000 3 
0.0000000000 1 1.0000000000 1 
-3.4950521840 0.0000000000 41.3694900000 1.0000000000 
-3.4950521840 6.9901043680 41.3694900000 0.3333333333 
3.4950521840 6.9901043680 41.3694900000 0.3333333333 
3.4950521840 0.0000000000 41.3694900000 1.0000000000 
-3.4950521840 0.0000000000 38.8648726839 1.0000000000 
-3.4950521840 6.9901043680 38.8648726839 0.3333333333 
3.4950521840 6.9901043680 38.8648726839 0.3333333333 
3.4950521840 0.0000000000 38.8648726839 1.0000000000 
0 
0 
0 
0 
0 
0 
0 
F 1.0000000000 F 0.0000000000 F 1.0000000000 F 0.0000000000} I I I I #
-35 spline-surface $-1 forward { exactsur full nurbs 3 1 both open open none none 2 2 
0.0000000000 3 60.0871713066 3 
0.0000000000 1 5.3340000000 1 
-10.0145285511 0.0000000000 30.7340000000 1.0000000000 
-10.0145285511 20.0290571022 30.7340000000 0.3333333333 
10.0145285511 20.0290571022 30.7340000000 0.3333333333 
10.0145285511 0.0000000000 30.7340000000 1.0000000000 
-10.0145285511 0.0000000000 25.4000000000 1.0000000000 
-10.0145285511 20.0290571022 25.4000000000 0.3333333333 
10.0145285511 20.0290571022 25.4000000000 0.3333333333 
10.0145285511 0.0000000000 25.4000000000 1.0000000000 
0 
0 
0 
0 
0 
0 
0 
F 60.0871713066 F 0.0000000000 F 5.3340000000 F 0.0000000000} I I I I #
-36 spline-surface $-1 forward { exactsur full nurbs 3 1 both open open none none 2 2 
0.0000000000 3 60.0871713066 3 
0.0000000000 1 5.3340000000 1 
10.0145285511 0.0000000000 30.7340000000 1.0000000000 
10.0145285511 -20.0290571022 30.7340000000 0.3333333333 
-10.0145285511 -20.0290571022 30.7340000000 0.3333333333 
-10.0145285511 0.0000000000 30.7340000000 1.0000000000 
10.0145285511 0.0000000000 25.4000000000 1.0000000000 
10.0145285511 -20.0290571022 25.4000000000 0.3333333333 
-10.0145285511 -20.0290571022 25.4000000000 0.3333333333 
-10.0145285511 0.0000000000 25.4000000000 1.0000000000 
0 
0 
0 
0 
0 
0 
0 
F 60.0871713066 F 0.0000000000 F 5.3340000000 F 0.0000000000} I I I I #
-37 plane-surface $-1 0.0000000000 0.0000000000 25.4000000000 0.0000000000 0.0000000000 1.0000000000 1.0000000000 0.0000000000 0.0000000000 forward_v I I I I #
-38 spline-surface $-1 forward { exactsur full nurbs 3 1 both open open none none 2 2 
0.0000000000 3 1.0000000000 3 
0.0000000000 1 1.0000000000 1 
3.4950521840 0.0000000000 41.3694900000 1.0000000000 
3.4950521840 -6.9901043680 41.3694900000 0.3333333333 
-3.4950521840 -6.9901043680 41.3694900000 0.3333333333 
-3.4950521840 0.0000000000 41.3694900000 1.0000000000 
3.4950521840 0.0000000000 38.8648726839 1.0000000000 
3.4950521840 -6.9901043680 38.8648726839 0.3333333333 
-3.4950521840 -6.9901043680 38.8648726839 0.3333333333 
-3.4950521840 0.0000000000 38.8648726839 1.0000000000 
0 
0 
0 
0 
0 
0 
0 
F 1.0000000000 F 0.0000000000 F 1.0000000000 F 0.0000000000} I I I I #
-39 plane-surface $-1 0.0000000000 0.0000000000 41.3694900000 0.0000000000 0.0000000000 1.0000000000 1.0000000000 0.0000000000 0.0000000000 forward_v I I I I #
-40 spline-surface $-1 forward { exactsur full nurbs 3 3 both open open none none 2 2 
0.0000000000 3 1.0000000000 3 
0.0000000000 3 1.0000000000 3 
-6.0386722367 0.0000000000 35.6925549026 1.0000000000 
-8.4616739489 0.0000000000 35.1530142313 0.8534510805 
-10.0145285511 0.0000000000 33.2163459536 0.8534510805 
-10.0145285511 0.0000000000 30.7340000000 1.0000000000 
-6.0386722367 -12.0773444733 35.6925549026 0.3333333333 
-8.4616739489 -16.9233478978 35.1530142313 0.2844836935 
-10.0145285511 -20.0290571022 33.2163459536 0.2844836935 
-10.0145285511 -20.0290571022 30.7340000000 0.3333333333 
6.0386722367 -12.0773444733 35.6925549026 0.3333333333 
8.4616739489 -16.9233478978 35.1530142313 0.2844836935 
10.0145285511 -20.0290571022 33.2163459536 0.2844836935 
10.0145285511 -20.0290571022 30.7340000000 0.3333333333 
6.0386722367 -0.0000000000 35.6925549026 1.0000000000 
8.4616739489 -0.0000000000 35.1530142313 0.8534510805 
10.0145285511 -0.0000000000 33.2163459536 0.8534510805 
10.0145285511 -0.0000000000 30.7340000000 1.0000000000 
0 
0 
0 
0 
0 
0 
0 
F 1.0000000000 F 0.0000000000 F 1.0000000000 F 0.0000000000} I I I I #
-41 spline-surface $-1 forward { exactsur full nurbs 3 3 both open open none none 2 2 
0.0000000000 3 1.0000000000 3 
0.0000000000 3 1.0000000000 3 
6.0386722367 0.0000000000 35.6925549026 1.0000000000 
4.4885166839 0.0000000000 36.0377350002 0.8534510805 
3.4950521840 0.0000000000 37.2767506679 0.8534510805 
3.4950521840 0.0000000000 38.8648726839 1.0000000000 
6.0386722367 12.0773444733 35.6925549026 0.3333333333 
4.4885166839 8.9770333678 36.0377350002 0.2844836935 
3.4950521840 6.9901043680 37.2767506679 0.2844836935 
3.4950521840 6.9901043680 38.8648726839 0.3333333333 
-6.0386722367 12.0773444733 35.6925549026 0.3333333333 
-4.4885166839 8.9770333678 36.0377350002 0.2844836935 
-3.4950521840 6.9901043680 37.2767506679 0.2844836935 
-3.4950521840 6.9901043680 38.8648726839 0.3333333333 
-6.0386722367 0.0000000000 35.6925549026 1.0000000000 
-4.4885166839 0.0000000000 36.0377350002 0.8534510805 
-3.4950521840 0.0000000000 37.2767506679 0.8534510805 
-3.4950521840 0.0000000000 38.8648726839 1.0000000000 
0 
0 
0 
0 
0 
0 
0 
F 1.0000000000 F 0.0000000000 F 1.0000000000 F 0.0000000000} I I I I #
-42 loop $-1 $-1 $52 $12 #
-43 loop $-1 $-1 $56 $14 #
-44 loop $-1 $-1 $60 $16 #
-45 loop $-1 $-1 $64 $18 #
-46 loop $-1 $-1 $68 $20 #
-47 loop $-1 $-1 $72 $22 #
-48 loop $-1 $-1 $74 $24 #
-49 loop $-1 $-1 $78 $26 #
-50 loop $-1 $-1 $80 $28 #
-51 loop $-1 $-1 $84 $30 #
-52 coedge $-1 $53 $55 $77 $120 reversed $42 $88 #
-53 coedge $-1 $54 $52 $84 $121 forward $42 $89 #
-54 coedge $-1 $55 $53 $83 $122 reversed $42 $90 #
-55 coedge $-1 $52 $54 $86 $123 reversed $42 $91 #
-56 coedge $-1 $57 $59 $64 $124 reversed $43 $92 #
-57 coedge $-1 $58 $56 $80 $125 forward $43 $93 #
-58 coedge $-1 $59 $57 $87 $126 forward $43 $94 #
-59 coedge $-1 $56 $58 $82 $127 reversed $43 $95 #
-60 coedge $-1 $61 $63 $79 $128 reversed $44 $96 #
-61 coedge $-1 $62 $60 $74 $129 forward $44 $97 #
-62 coedge $-1 $63 $61 $85 $130 forward $44 $98 #
-63 coedge $-1 $60 $62 $76 $131 reversed $44 $99 #
-64 coedge $-1 $65 $67 $56 $124 forward $45 $100 #
-65 coedge $-1 $66 $64 $68 $132 forward $45 $101 #
-66 coedge $-1 $67 $65 $73 $133 forward $45 $102 #
-67 coedge $-1 $64 $66 $70 $134 reversed $45 $103 #
-68 coedge $-1 $69 $71 $65 $132 reversed $46 $104 #
-69 coedge $-1 $70 $68 $81 $135 forward $46 $105 #
-70 coedge $-1 $71 $69 $67 $134 forward $46 $106 #
-71 coedge $-1 $68 $70 $72 $136 forward $46 $107 #
-72 coedge $-1 $73 $73 $71 $136 reversed $47 $-1 #
-73 coedge $-1 $72 $72 $66 $133 reversed $47 $-1 #
-74 coedge $-1 $75 $77 $61 $129 reversed $48 $108 #
-75 coedge $-1 $76 $74 $78 $137 reversed $48 $109 #
-76 coedge $-1 $77 $75 $63 $131 forward $48 $110 #
-77 coedge $-1 $74 $76 $52 $120 forward $48 $111 #
-78 coedge $-1 $79 $79 $75 $137 forward $49 $-1 #
-79 coedge $-1 $78 $78 $60 $128 forward $49 $-1 #
-80 coedge $-1 $81 $83 $57 $125 reversed $50 $112 #
-81 coedge $-1 $82 $80 $69 $135 reversed $50 $113 #
-82 coedge $-1 $83 $81 $59 $127 forward $50 $114 #
-83 coedge $-1 $80 $82 $54 $122 forward $50 $115 #
-84 coedge $-1 $85 $87 $53 $121 reversed $51 $116 #
-85 coedge $-1 $86 $84 $62 $130 reversed $51 $117 #
-86 coedge $-1 $87 $85 $55 $123 forward $51 $118 #
-87 coedge $-1 $84 $86 $58 $126 reversed $51 $119 #
-88 pcurve $-1 0 forward { exppc nubs 1 open 2
-1.000000000000000 1 -0.000000000000000 1 
1.000000000000000 1.000000000000000 
1.000000000000000 0.000000000000000 
0.00000000001
spline forward { ref 0 } I I I I
} 0 0 #
-89 pcurve $-1 0 forward { exppc nubs 1 open 2
0.000000000000000 1 1.000000000000000 1 
1.000000000000000 0.000000000000000 
0.000000000000000 0.000000000000000 
0.00000000001
spline forward { ref 0 } I I I I
} 0 0 #
-90 pcurve $-1 0 forward { exppc nubs 1 open 2
-1.000000000000000 1 -0.000000000000000 1 
0.000000000000000 0.000000000000000 
0.000000000000000 1.000000000000000 
0.00000000001
spline forward { ref 0 } I I I I
} 0 0 #
-91 pcurve $-1 0 forward { exppc nubs 1 open 2
-1.000000000000000 1 -0.000000000000000 1 
0.000000000000000 1.000000000000000 
1.000000000000000 1.000000000000000 
0.00000000001
spline forward { ref 0 } I I I I
} 0 0 #
-92 pcurve $-1 0 forward { exppc nubs 1 open 2
-1.000000000000000 1 -0.000000000000000 1 
1.000000000000000 0.000000000000000 
1.000000000000000 1.000000000000000 
0.00000000001
spline forward { ref 1 } I I I I
} 0 0 #
-93 pcurve $-1 0 forward { exppc nubs 1 open 2
0.000000000000000 1 1.000000000000000 1 
1.000000000000000 1.000000000000000 
0.000000000000000 1.000000000000000 
0.00000000001
spline forward { ref 1 } I I I I
} 0 0 #
-94 pcurve $-1 0 forward { exppc nubs 1 open 2
0.000000000000000 1 1.000000000000000 1 
0.000000000000000 1.000000000000000 
0.000000000000000 0.000000000000000 
0.00000000001
spline forward { ref 1 } I I I I
} 0 0 #
-95 pcurve $-1 0 forward { exppc nubs 1 open 2
-1.000000000000000 1 -0.000000000000000 1 
0.000000000000000 0.000000000000000 
1.000000000000000 0.000000000000000 
0.00000000001
spline forward { ref 1 } I I I I
} 0 0 #
-96 pcurve $-1 0 forward { exppc nubs 1 open 2
-1.000000000000000 1 -0.000000000000000 1 
0.000000000000000 0.000000000000000 
1.000000000000000 0.000000000000000 
0.00000000001
spline forward { ref 2 } I I I I
} 0 0 #
-97 pcurve $-1 0 forward { exppc nubs 1 open 2
0.000000000000000 1 1.000000000000000 1 
1.000000000000000 0.000000000000000 
1.000000000000000 1.000000000000000 
0.00000000001
spline forward { ref 2 } I I I I
} 0 0 #
-98 pcurve $-1 0 forward { exppc nubs 1 open 2
0.000000000000000 1 1.000000000000000 1 
1.000000000000000 1.000000000000000 
0.000000000000000 1.000000000000000 
0.00000000001
spline forward { ref 2 } I I I I
} 0 0 #
-99 pcurve $-1 0 forward { exppc nubs 1 open 2
-1.000000000000000 1 -0.000000000000000 1 
0.000000000000000 1.000000000000000 
0.000000000000000 0.000000000000000 
0.00000000001
spline forward { ref 2 } I I I I
} 0 0 #
-100 pcurve $-1 0 forward { exppc nubs 1 open 2
0.000000000000000 1 60.087171306585958 1 
0.000000000000000 0.000000000000000 
60.087171306585958 0.000000000000000 
0.00000000001
spline forward { ref 3 } I I I I
} 0 0 #
-101 pcurve $-1 0 forward { exppc nubs 1 open 2
0.000000000000000 1 5.334000000000003 1 
60.087171306585958 0.000000000000000 
60.087171306585958 5.334000000000003 
0.00000000001
spline forward { ref 3 } I I I I
} 0 0 #
-102 pcurve $-1 0 forward { exppc nubs 1 open 2
0.000000000000000 1 60.087171306585958 1 
60.087171306585958 5.334000000000003 
0.000000000000000 5.334000000000003 
0.00000000001
spline forward { ref 3 } I I I I
} 0 0 #
-103 pcurve $-1 0 forward { exppc nubs 1 open 2
-5.334000000000003 1 -0.000000000000000 1 
0.000000000000000 5.334000000000003 
0.000000000000000 0.000000000000000 
0.00000000001
spline forward { ref 3 } I I I I
} 0 0 #
-104 pcurve $-1 0 forward { exppc nubs 1 open 2
-5.334000000000003 1 -0.000000000000000 1 
0.000000000000000 5.334000000000003 
0.000000000000000 0.000000000000000 
0.00000000001
spline forward { ref 4 } I I I I
} 0 0 #
-105 pcurve $-1 0 forward { exppc nubs 1 open 2
0.000000000000000 1 60.087171306585958 1 
0.000000000000000 0.000000000000000 
60.087171306585958 0.000000000000000 
0.00000000001
spline forward { ref 4 } I I I I
} 0 0 #
-106 pcurve $-1 0 forward { exppc nubs 1 open 2
0.000000000000000 1 5.334000000000003 1 
60.087171306585958 0.000000000000000 
60.087171306585958 5.334000000000003 
0.00000000001
spline forward { ref 4 } I I I I
} 0 0 #
-107 pcurve $-1 0 forward { exppc nubs 1 open 2
0.000000000000000 1 60.087171306585958 1 
60.087171306585958 5.334000000000003 
0.000000000000000 5.334000000000003 
0.00000000001
spline forward { ref 4 } I I I I
} 0 0 #
-108 pcurve $-1 0 forward { exppc nubs 1 open 2
-1.000000000000000 1 -0.000000000000000 1 
0.000000000000000 1.000000000000000 
0.000000000000000 0.000000000000000 
0.00000000001
spline forward { ref 5 } I I I I
} 0 0 #
-109 pcurve $-1 0 forward { exppc nubs 1 open 2
-1.000000000000000 1 -0.000000000000000 1 
0.000000000000000 0.000000000000000 
1.000000000000000 0.000000000000000 
0.00000000001
spline forward { ref 5 } I I I I
} 0 0 #
-110 pcurve $-1 0 forward { exppc nubs 1 open 2
0.000000000000000 1 1.000000000000000 1 
1.000000000000000 0.000000000000000 
1.000000000000000 1.000000000000000 
0.00000000001
spline forward { ref 5 } I I I I
} 0 0 #
-111 pcurve $-1 0 forward { exppc nubs 1 open 2
0.000000000000000 1 1.000000000000000 1 
1.000000000000000 1.000000000000000 
0.000000000000000 1.000000000000000 
0.00000000001
spline forward { ref 5 } I I I I
} 0 0 #
-112 pcurve $-1 0 forward { exppc nubs 1 open 2
-1.000000000000000 1 -0.000000000000000 1 
0.000000000000000 0.000000000000000 
1.000000000000000 0.000000000000000 
0.00000000001
spline forward { ref 6 } I I I I
} 0 0 #
-113 pcurve $-1 0 forward { exppc nubs 1 open 2
-1.000000000000000 1 -0.000000000000000 1 
1.000000000000000 0.000000000000000 
1.000000000000000 1.000000000000000 
0.00000000001
spline forward { ref 6 } I I I I
} 0 0 #
-114 pcurve $-1 0 forward { exppc nubs 1 open 2
0.000000000000000 1 1.000000000000000 1 
1.000000000000000 1.000000000000000 
0.000000000000000 1.000000000000000 
0.00000000001
spline forward { ref 6 } I I I I
} 0 0 #
-115 pcurve $-1 0 forward { exppc nubs 1 open 2
0.000000000000000 1 1.000000000000000 1 
0.000000000000000 1.000000000000000 
0.000000000000000 0.000000000000000 
0.00000000001
spline forward { ref 6 } I I I I
} 0 0 #
-116 pcurve $-1 0 forward { exppc nubs 1 open 2
-1.000000000000000 1 -0.000000000000000 1 
0.000000000000000 1.000000000000000 
1.000000000000000 1.000000000000000 
0.00000000001
spline forward { ref 7 } I I I I
} 0 0 #
-117 pcurve $-1 0 forward { exppc nubs 1 open 2
-1.000000000000000 1 -0.000000000000000 1 
1.000000000000000 1.000000000000000 
1.000000000000000 0.000000000000000 
0.00000000001
spline forward { ref 7 } I I I I
} 0 0 #
-118 pcurve $-1 0 forward { exppc nubs 1 open 2
0.000000000000000 1 1.000000000000000 1 
1.000000000000000 0.000000000000000 
0.000000000000000 0.000000000000000 
0.00000000001
spline forward { ref 7 } I I I I
} 0 0 #
-119 pcurve $-1 0 forward { exppc nubs 1 open 2
-1.000000000000000 1 -0.000000000000000 1 
0.000000000000000 0.000000000000000 
0.000000000000000 1.000000000000000 
0.00000000001
spline forward { ref 7 } I I I I
} 0 0 #
-120 edge $-1 $139 3.1415926536 $141 6.2831853072 $52 $138 forward 7 unknown #
-121 edge $-1 $139 3.1415926536 $144 4.4932890909 $53 $143 forward 7 unknown #
-122 edge $-1 $147 3.1415926536 $144 6.2831853072 $54 $146 forward 7 unknown #
-123 edge $-1 $141 4.7123889804 $147 6.0640854177 $55 $149 forward 7 unknown #
-124 edge $-1 $151 3.1415926536 $153 6.2831853072 $56 $150 forward 7 unknown #
-125 edge $-1 $151 0.0000000000 $144 1.3516964373 $57 $155 forward 7 unknown #
-126 edge $-1 $144 0.0000000000 $147 3.1415926536 $58 $156 forward 7 unknown #
-127 edge $-1 $153 1.5707963268 $147 2.9224927641 $59 $157 forward 7 unknown #
-128 edge $-1 $159 0.0000000000 $161 3.1415926536 $60 $158 forward 7 unknown #
-129 edge $-1 $159 0.0000000000 $141 2.5046173161 $61 $163 forward 7 unknown #
-130 edge $-1 $141 0.0000000000 $139 3.1415926536 $62 $164 forward 7 unknown #
-131 edge $-1 $161 0.0000000000 $139 2.5046173161 $63 $165 forward 7 unknown #
-132 edge $-1 $153 0.0000000000 $167 5.3340000000 $65 $166 forward 7 unknown #
-133 edge $-1 $167 0.0000000000 $170 3.1415926536 $66 $169 forward 7 unknown #
-134 edge $-1 $151 0.0000000000 $170 5.3340000000 $67 $172 forward 7 unknown #
-135 edge $-1 $153 0.0000000000 $151 3.1415926536 $69 $173 forward 7 unknown #
-136 edge $-1 $170 3.1415926536 $167 6.2831853072 $71 $174 forward 7 unknown #
-137 edge $-1 $161 3.1415926536 $159 6.2831853072 $75 $175 forward 7 unknown #
-138 ellipse-curve $-1 0.000000000000000 0.000000000000001 38.864872683867404 0.000000000000000 0.000000000000000 1.000000000000000 3.495052184011215 0.000000000000000 0.000000000000000 1.000000000000000 I I #
-139 vertex $-1 $120 $140 #
-140 point $-1 -3.495052184011215 0.000000000000001 38.864872683867404 #
-141 vertex $-1 $120 $142 #
-142 point $-1 3.495052184011215 0.000000000000001 38.864872683867404 #
-143 ellipse-curve $-1 -6.745066481677870 0.000000000000002 38.864872683867404 0.000000000000000 1.000000000000000 -0.000000000000000 -3.250014297666660 0.000000000000000 0.000000000000000 1.000000000000000 I I #
-144 vertex $-1 $121 $145 #
-145 point $-1 -6.038672236652170 0.000000000000002 35.692554902554747 #
-146 ellipse-curve $-1 0.000000000000000 0.000000000000001 35.692554902554747 0.000000000000000 0.000000000000000 -1.000000000000000 -6.038672236652170 0.000000000000000 0.000000000000000 1.000000000000000 I I #
-147 vertex $-1 $122 $148 #
-148 point $-1 6.038672236652170 0.000000000000001 35.692554902554747 #
-149 ellipse-curve $-1 6.745066481677870 0.000000000000001 38.864872683867404 0.000000000000000 -1.000000000000000 0.000000000000000 0.000000000000000 -0.000000000000000 -3.250014297666660 1.000000000000000 I I #
-150 ellipse-curve $-1 0.000000000000000 0.000000000000001 30.734000000000002 0.000000000000000 0.000000000000000 -1.000000000000000 10.014528551097660 0.000000000000000 0.000000000000000 1.000000000000000 I I #
-151 vertex $-1 $124 $152 #
-152 point $-1 -10.014528551097660 0.000000000000001 30.734000000000002 #
-153 vertex $-1 $124 $154 #
-154 point $-1 10.014528551097660 0.000000000000002 30.734000000000002 #
-155 ellipse-curve $-1 -4.934528551097660 0.000000000000001 30.734000000000002 0.000000000000000 1.000000000000000 -0.000000000000000 -5.080000000000000 0.000000000000001 0.000000000000000 1.000000000000000 I I #
-156 ellipse-curve $-1 0.000000000000000 0.000000000000001 35.692554902554747 0.000000000000000 0.000000000000000 -1.000000000000000 -6.038672236652170 0.000000000000000 0.000000000000000 1.000000000000000 I I #
-157 ellipse-curve $-1 4.934528551097660 0.000000000000001 30.734000000000002 0.000000000000000 -1.000000000000000 0.000000000000000 0.000000000000000 -0.000000000000000 -5.080000000000000 1.000000000000000 I I #
-158 ellipse-curve $-1 0.000000000000000 0.000000000000001 41.369489999999999 0.000000000000000 0.000000000000000 1.000000000000000 3.495052184011215 0.000000000000000 0.000000000000000 1.000000000000000 I I #
-159 vertex $-1 $128 $160 #
-160 point $-1 3.495052184011215 0.000000000000001 41.369489999999999 #
-161 vertex $-1 $128 $162 #
-162 point $-1 -3.495052184011215 0.000000000000001 41.369489999999999 #
-163 straight-curve $-1 3.495052184011215 0.000000000000001 41.369489999999999 0.000000000000000 0.000000000000000 -1.000000000000000 I I #
-164 ellipse-curve $-1 0.000000000000000 0.000000000000001 38.864872683867404 0.000000000000000 0.000000000000000 1.000000000000000 3.495052184011215 0.000000000000000 0.000000000000000 1.000000000000000 I I #
-165 straight-curve $-1 -3.495052184011215 0.000000000000001 41.369489999999999 0.000000000000000 0.000000000000000 -1.000000000000000 I I #
-166 straight-curve $-1 10.014528551097660 0.000000000000002 30.734000000000002 0.000000000000000 0.000000000000000 -1.000000000000000 I I #
-167 vertex $-1 $132 $168 #
-168 point $-1 10.014528551097660 0.000000000000002 25.399999999999999 #
-169 ellipse-curve $-1 0.000000000000000 0.000000000000001 25.399999999999999 0.000000000000000 0.000000000000000 1.000000000000000 10.014528551097660 0.000000000000000 0.000000000000000 1.000000000000000 I I #
-170 vertex $-1 $133 $171 #
-171 point $-1 -10.014528551097660 0.000000000000001 25.399999999999999 #
-172 straight-curve $-1 -10.014528551097660 0.000000000000001 30.734000000000002 0.000000000000000 0.000000000000000 -1.000000000000000 I I #
-173 ellipse-curve $-1 0.000000000000000 0.000000000000001 30.734000000000002 0.000000000000000 0.000000000000000 -1.000000000000000 10.014528551097660 0.000000000000000 0.000000000000000 1.000000000000000 I I #
-174 ellipse-curve $-1 0.000000000000000 0.000000000000001 25.399999999999999 0.000000000000000 0.000000000000000 1.000000000000000 10.014528551097660 0.000000000000000 0.000000000000000 1.000000000000000 I I #
-175 ellipse-curve $-1 0.000000000000000 0.000000000000001 41.369489999999999 0.000000000000000 0.000000000000000 1.000000000000000 3.495052184011215 0.000000000000000 0.000000000000000 1.000000000000000 I I #
-176 face $177 $178 $194 $10 $-1 $188 forward single #
-177 rgb_color-st-attrib $-1 $-1 $-1 $176 1.000000 0.000000 0.000000 #
-178 face $179 $180 $195 $10 $-1 $189 forward single #
-179 rgb_color-st-attrib $-1 $-1 $-1 $178 1.000000 0.000000 0.000000 #
-180 face $181 $182 $196 $10 $-1 $190 forward single #
-181 rgb_color-st-attrib $-1 $-1 $-1 $180 1.000000 0.000000 0.000000 #
-182 face $183 $184 $197 $10 $-1 $191 forward single #
-183 rgb_color-st-attrib $-1 $-1 $-1 $182 1.000000 0.000000 0.000000 #
-184 face $185 $186 $198 $10 $-1 $192 reversed single #
-185 rgb_color-st-attrib $-1 $-1 $-1 $184 1.000000 0.000000 0.000000 #
-186 face $187 $-1 $199 $10 $-1 $193 forward single #
-187 rgb_color-st-attrib $-1 $-1 $-1 $186 1.000000 0.000000 0.000000 #
-188 spline-surface $-1 forward { exactsur full nurbs 3 3 both open open none none 2 2 
0.0000000000 3 3.6960258881 3 
0.0000000000 3 56.9308639613 3 
10.0145285511 0.0000000000 1.2700000000 1.0000000000 
10.0145285511 0.0000000000 0.5260512242 0.8047378541 
9.4884773269 0.0000000000 0.0000000000 0.8047378541 
8.7445285511 0.0000000000 0.0000000000 1.0000000000 
10.0145285511 20.0290571022 1.2700000000 0.3333333333 
10.0145285511 20.0290571022 0.5260512242 0.2682459514 
9.4884773269 18.9769546538 0.0000000000 0.2682459514 
8.7445285511 17.4890571022 0.0000000000 0.3333333333 
-10.0145285511 20.0290571022 1.2700000000 0.3333333333 
-10.0145285511 20.0290571022 0.5260512242 0.2682459514 
-9.4884773269 18.9769546538 0.0000000000 0.2682459514 
-8.7445285511 17.4890571022 0.0000000000 0.3333333333 
-10.0145285511 0.0000000000 1.2700000000 1.0000000000 
-10.0145285511 0.0000000000 0.5260512242 0.8047378541 
-9.4884773269 0.0000000000 0.0000000000 0.8047378541 
-8.7445285511 0.0000000000 0.0000000000 1.0000000000 
0 
0 
0 
0 
0 
0 
0 
F 3.6960258881 F 0.0000000000 F 56.9308639613 F 0.0000000000} I I I I #
-189 spline-surface $-1 forward { exactsur full nurbs 3 1 both open open none none 2 2 
0.0000000000 3 1.0000000000 3 
0.0000000000 1 1.0000000000 1 
-10.0145285511 0.0000000000 25.4000000000 1.0000000000 
-10.0145285511 20.0290571022 25.4000000000 0.3333333333 
10.0145285511 20.0290571022 25.4000000000 0.3333333333 
10.0145285511 0.0000000000 25.4000000000 1.0000000000 
-10.0145285511 0.0000000000 1.2700000000 1.0000000000 
-10.0145285511 20.0290571022 1.2700000000 0.3333333333 
10.0145285511 20.0290571022 1.2700000000 0.3333333333 
10.0145285511 0.0000000000 1.2700000000 1.0000000000 
0 
0 
0 
0 
0 
0 
0 
F 1.0000000000 F 0.0000000000 F 1.0000000000 F 0.0000000000} I I I I #
-190 spline-surface $-1 forward { exactsur full nurbs 3 1 both open open none none 2 2 
0.0000000000 3 1.0000000000 3 
0.0000000000 1 1.0000000000 1 
10.0145285511 0.0000000000 25.4000000000 1.0000000000 
10.0145285511 -20.0290571022 25.4000000000 0.3333333333 
-10.0145285511 -20.0290571022 25.4000000000 0.3333333333 
-10.0145285511 0.0000000000 25.4000000000 1.0000000000 
10.0145285511 0.0000000000 1.2700000000 1.0000000000 
10.0145285511 -20.0290571022 1.2700000000 0.3333333333 
-10.0145285511 -20.0290571022 1.2700000000 0.3333333333 
-10.0145285511 0.0000000000 1.2700000000 1.0000000000 
0 
0 
0 
0 
0 
0 
0 
F 1.0000000000 F 0.0000000000 F 1.0000000000 F 0.0000000000} I I I I #
-191 plane-surface $-1 0.0000000000 0.0000000000 25.4000000000 0.0000000000 0.0000000000 1.0000000000 1.0000000000 0.0000000000 0.0000000000 forward_v I I I I #
-192 plane-surface $-1 0.0000000000 0.0000000000 0.0000000000 0.0000000000 0.0000000000 1.0000000000 1.0000000000 0.0000000000 0.0000000000 forward_v I I I I #
-193 spline-surface $-1 forward { exactsur full nurbs 3 3 both open open none none 2 2 
0.0000000000 3 3.6960258881 3 
0.0000000000 3 56.9308639613 3 
-10.0145285511 0.0000000000 1.2700000000 1.0000000000 
-10.0145285511 0.0000000000 0.5260512242 0.8047378541 
-9.4884773269 0.0000000000 -0.0000000000 0.8047378541 
-8.7445285511 0.0000000000 0.0000000000 1.0000000000 
-10.0145285511 -20.0290571022 1.2700000000 0.3333333333 
-10.0145285511 -20.0290571022 0.5260512242 0.2682459514 
-9.4884773269 -18.9769546538 -0.0000000000 0.2682459514 
-8.7445285511 -17.4890571022 0.0000000000 0.3333333333 
10.0145285511 -20.0290571022 1.2700000000 0.3333333333 
10.0145285511 -20.0290571022 0.5260512242 0.2682459514 
9.4884773269 -18.9769546538 -0.0000000000 0.2682459514 
8.7445285511 -17.4890571022 0.0000000000 0.3333333333 
10.0145285511 -0.0000000000 1.2700000000 1.0000000000 
10.0145285511 -0.0000000000 0.5260512242 0.8047378541 
9.4884773269 -0.0000000000 -0.0000000000 0.8047378541 
8.7445285511 -0.0000000000 0.0000000000 1.0000000000 
0 
0 
0 
0 
0 
0 
0 
F 3.6960258881 F 0.0000000000 F 56.9308639613 F 0.0000000000} I I I I #
-194 loop $-1 $-1 $200 $176 #
-195 loop $-1 $-1 $204 $178 #
-196 loop $-1 $-1 $208 $180 #
-197 loop $-1 $-1 $212 $182 #
-198 loop $-1 $-1 $214 $184 #
-199 loop $-1 $-1 $216 $186 #
-200 coedge $-1 $201 $203 $215 $236 reversed $194 $220 #
-201 coedge $-1 $202 $200 $216 $237 forward $194 $221 #
-202 coedge $-1 $203 $201 $206 $238 reversed $194 $222 #
-203 coedge $-1 $200 $202 $218 $239 reversed $194 $223 #
-204 coedge $-1 $205 $207 $213 $240 reversed $195 $224 #
-205 coedge $-1 $206 $204 $208 $241 forward $195 $225 #
-206 coedge $-1 $207 $205 $202 $238 forward $195 $226 #
-207 coedge $-1 $204 $206 $210 $242 reversed $195 $227 #
-208 coedge $-1 $209 $211 $205 $241 reversed $196 $228 #
-209 coedge $-1 $210 $208 $212 $243 reversed $196 $229 #
-210 coedge $-1 $211 $209 $207 $242 forward $196 $230 #
-211 coedge $-1 $208 $210 $219 $244 forward $196 $231 #
-212 coedge $-1 $213 $213 $209 $243 forward $197 $-1 #
-213 coedge $-1 $212 $212 $204 $240 forward $197 $-1 #
-214 coedge $-1 $215 $215 $217 $245 forward $198 $-1 #
-215 coedge $-1 $214 $214 $200 $236 forward $198 $-1 #
-216 coedge $-1 $217 $219 $201 $237 reversed $199 $232 #
-217 coedge $-1 $218 $216 $214 $245 reversed $199 $233 #
-218 coedge $-1 $219 $217 $203 $239 forward $199 $234 #
-219 coedge $-1 $216 $218 $211 $244 reversed $199 $235 #
-220 pcurve $-1 0 forward { exppc nubs 1 open 2
-56.930863961302968 1 -0.000000000000000 1 
3.696025888112108 0.000000000000000 
3.696025888112108 56.930863961302968 
0.00000000001
spline forward { ref 40 } I I I I
} 0 0 #
-221 pcurve $-1 0 forward { exppc nubs 1 open 2
0.000000000000000 1 3.696025888112108 1 
3.696025888112108 56.930863961302968 
0.000000000000000 56.930863961302968 
0.00000000001
spline forward { ref 40 } I I I I
} 0 0 #
-222 pcurve $-1 0 forward { exppc nubs 1 open 2
-56.930863961302968 1 -0.000000000000000 1 
0.000000000000000 56.930863961302968 
0.000000000000000 0.000000000000000 
0.00000000001
spline forward { ref 40 } I I I I
} 0 0 #
-223 pcurve $-1 0 forward { exppc nubs 1 open 2
-3.696025888112108 1 -0.000000000000000 1 
0.000000000000000 0.000000000000000 
3.696025888112108 0.000000000000000 
0.00000000001
spline forward { ref 40 } I I I I
} 0 0 #
-224 pcurve $-1 0 forward { exppc nubs 1 open 2
-1.000000000000000 1 -0.000000000000000 1 
0.000000000000000 0.000000000000000 
1.000000000000000 0.000000000000000 
0.00000000001
spline forward { ref 41 } I I I I
} 0 0 #
-225 pcurve $-1 0 forward { exppc nubs 1 open 2
0.000000000000000 1 1.000000000000000 1 
1.000000000000000 0.000000000000000 
1.000000000000000 1.000000000000000 
0.00000000001
spline forward { ref 41 } I I I I
} 0 0 #
-226 pcurve $-1 0 forward { exppc nubs 1 open 2
0.000000000000000 1 1.000000000000000 1 
1.000000000000000 1.000000000000000 
0.000000000000000 1.000000000000000 
0.00000000001
spline forward { ref 41 } I I I I
} 0 0 #
-227 pcurve $-1 0 forward { exppc nubs 1 open 2
-1.000000000000000 1 -0.000000000000000 1 
0.000000000000000 1.000000000000000 
0.000000000000000 0.000000000000000 
0.00000000001
spline forward { ref 41 } I I I I
} 0 0 #
-228 pcurve $-1 0 forward { exppc nubs 1 open 2
-1.000000000000000 1 -0.000000000000000 1 
0.000000000000000 1.000000000000000 
0.000000000000000 0.000000000000000 
0.00000000001
spline forward { ref 42 } I I I I
} 0 0 #
-229 pcurve $-1 0 forward { exppc nubs 1 open 2
-1.000000000000000 1 -0.000000000000000 1 
0.000000000000000 0.000000000000000 
1.000000000000000 0.000000000000000 
0.00000000001
spline forward { ref 42 } I I I I
} 0 0 #
-230 pcurve $-1 0 forward { exppc nubs 1 open 2
0.000000000000000 1 1.000000000000000 1 
1.000000000000000 0.000000000000000 
1.000000000000000 1.000000000000000 
0.00000000001
spline forward { ref 42 } I I I I
} 0 0 #
-231 pcurve $-1 0 forward { exppc nubs 1 open 2
0.000000000000000 1 1.000000000000000 1 
1.000000000000000 1.000000000000000 
0.000000000000000 1.000000000000000 
0.00000000001
spline forward { ref 42 } I I I I
} 0 0 #
-232 pcurve $-1 0 forward { exppc nubs 1 open 2
-3.696025888112107 1 -0.000000000000000 1 
0.000000000000000 0.000000000000000 
3.696025888112107 0.000000000000000 
0.00000000001
spline forward { ref 43 } I I I I
} 0 0 #
-233 pcurve $-1 0 forward { exppc nubs 1 open 2
-56.930863961302961 1 -0.000000000000000 1 
3.696025888112107 0.000000000000000 
3.696025888112107 56.930863961302954 
0.00000000001
spline forward { ref 43 } I I I I
} 0 0 #
-234 pcurve $-1 0 forward { exppc nubs 1 open 2
0.000000000000000 1 3.696025888112107 1 
3.696025888112107 56.930863961302961 
0.000000000000000 56.930863961302961 
0.00000000001
spline forward { ref 43 } I I I I
} 0 0 #
-235 pcurve $-1 0 forward { exppc nubs 1 open 2
-56.930863961302961 1 -0.000000000000000 1 
0.000000000000000 56.930863961302961 
0.000000000000000 0.000000000000007 
0.00000000001
spline forward { ref 43 } I I I I
} 0 0 #
-236 edge $-1 $247 3.1415926536 $249 6.2831853072 $200 $246 forward 7 unknown #
-237 edge $-1 $247 4.7123889804 $252 6.2831853072 $201 $251 forward 7 unknown #
-238 edge $-1 $255 0.0000000000 $252 3.1415926536 $202 $254 forward 7 unknown #
-239 edge $-1 $249 0.0000000000 $255 1.5707963268 $203 $257 forward 7 unknown #
-240 edge $-1 $259 0.0000000000 $261 3.1415926536 $204 $258 forward 7 unknown #
-241 edge $-1 $259 0.0000000000 $255 24.1300000000 $205 $263 forward 7 unknown #
-242 edge $-1 $261 0.0000000000 $252 24.1300000000 $207 $264 forward 7 unknown #
-243 edge $-1 $261 3.1415926536 $259 6.2831853072 $209 $265 forward 7 unknown #
-244 edge $-1 $252 3.1415926536 $255 6.2831853072 $211 $266 forward 7 unknown #
-245 edge $-1 $249 0.0000000000 $247 3.1415926536 $214 $267 forward 7 unknown #
-246 ellipse-curve $-1 0.000000000000000 0.000000000000001 0.000000000000000 0.000000000000000 0.000000000000000 -1.000000000000000 8.744528551097661 0.000000000000000 0.000000000000000 1.000000000000000 I I #
-247 vertex $-1 $236 $248 #
-248 point $-1 -8.744528551097661 0.000000000000002 0.000000000000000 #
-249 vertex $-1 $236 $250 #
-250 point $-1 8.744528551097661 0.000000000000001 0.000000000000000 #
-251 ellipse-curve $-1 -8.744528551097661 0.000000000000002 1.270000000000000 0.000000000000000 1.000000000000000 -0.000000000000000 -1.270000000000000 0.000000000000000 0.000000000000000 1.000000000000000 I I #
-252 vertex $-1 $237 $253 #
-253 point $-1 -10.014528551097660 0.000000000000001 1.270000000000000 #
-254 ellipse-curve $-1 0.000000000000000 0.000000000000001 1.270000000000000 0.000000000000000 0.000000000000000 1.000000000000000 10.014528551097660 0.000000000000000 0.000000000000000 1.000000000000000 I I #
-255 vertex $-1 $238 $256 #
-256 point $-1 10.014528551097660 0.000000000000002 1.270000000000000 #
-257 ellipse-curve $-1 8.744528551097661 0.000000000000001 1.270000000000000 0.000000000000000 -1.000000000000000 0.000000000000000 0.000000000000000 -0.000000000000000 -1.270000000000000 1.000000000000000 I I #
-258 ellipse-curve $-1 0.000000000000000 0.000000000000001 25.399999999999999 0.000000000000000 0.000000000000000 1.000000000000000 10.014528551097660 0.000000000000000 0.000000000000000 1.000000000000000 I I #
-259 vertex $-1 $240 $260 #
-260 point $-1 10.014528551097660 0.000000000000002 25.399999999999999 #
-261 vertex $-1 $240 $262 #
-262 point $-1 -10.014528551097660 0.000000000000001 25.399999999999999 #
-263 straight-curve $-1 10.014528551097660 0.000000000000002 25.399999999999999 0.000000000000000 0.000000000000000 -1.000000000000000 I I #
-264 straight-curve $-1 -10.014528551097660 0.000000000000001 25.399999999999999 0.000000000000000 0.000000000000000 -1.000000000000000 I I #
-265 ellipse-curve $-1 0.000000000000000 0.000000000000001 25.399999999999999 0.000000000000000 0.000000000000000 1.000000000000000 10.014528551097660 0.000000000000000 0.000000000000000 1.000000000000000 I I #
-266 ellipse-curve $-1 0.000000000000000 0.000000000000001 1.270000000000000 0.000000000000000 0.000000000000000 1.000000000000000 10.014528551097660 0.000000000000000 0.000000000000000 1.000000000000000 I I #
-267 ellipse-curve $-1 0.000000000000000 0.000000000000001 0.000000000000000 0.000000000000000 0.000000000000000 -1.000000000000000 8.744528551097661 0.000000000000000 0.000000000000000 1.000000000000000 I I #
-268 face $269 $270 $292 $11 $-1 $284 forward single #
-269 rgb_color-st-attrib $-1 $-1 $-1 $268 1.000000 0.000000 0.000000 #
-270 face $271 $272 $293 $11 $-1 $285 forward single #
-271 rgb_color-st-attrib $-1 $-1 $-1 $270 1.000000 0.000000 0.000000 #
-272 face $273 $274 $294 $11 $-1 $286 forward single #
-273 rgb_color-st-attrib $-1 $-1 $-1 $272 1.000000 0.000000 0.000000 #
-274 face $275 $276 $295 $11 $-1 $287 forward single #
-275 rgb_color-st-attrib $-1 $-1 $-1 $274 1.000000 0.000000 0.000000 #
-276 face $277 $278 $296 $11 $-1 $288 forward single #
-277 rgb_color-st-attrib $-1 $-1 $-1 $276 1.000000 0.000000 0.000000 #
-278 face $279 $280 $297 $11 $-1 $289 reversed single #
-279 rgb_color-st-attrib $-1 $-1 $-1 $278 1.000000 0.000000 0.000000 #
-280 face $281 $282 $298 $11 $-1 $290 forward single #
-281 rgb_color-st-attrib $-1 $-1 $-1 $280 1.000000 0.000000 0.000000 #
-282 face $283 $-1 $299 $11 $-1 $291 forward single #
-283 rgb_color-st-attrib $-1 $-1 $-1 $282 1.000000 0.000000 0.000000 #
-284 spline-surface $-1 forward { exactsur full nurbs 3 3 both open open none none 2 2 
0.0000000000 3 1.0000000000 3 
0.0000000000 3 24.7892331614 3 
4.1946650071 0.0000000000 38.5246900000 1.0000000000 
4.1946650071 0.0000000000 38.4354161469 0.8047378541 
4.1315388602 0.0000000000 38.3722900000 0.8047378541 
4.0422650071 0.0000000000 38.3722900000 1.0000000000 
4.1946650071 8.3893300143 38.5246900000 0.3333333333 
4.1946650071 8.3893300143 38.4354161469 0.2682459514 
4.1315388602 8.2630777205 38.3722900000 0.2682459514 
4.0422650071 8.0845300143 38.3722900000 0.3333333333 
-4.1946650071 8.3893300143 38.5246900000 0.3333333333 
-4.1946650071 8.3893300143 38.4354161469 0.2682459514 
-4.1315388602 8.2630777205 38.3722900000 0.2682459514 
-4.0422650071 8.0845300143 38.3722900000 0.3333333333 
-4.1946650071 0.0000000000 38.5246900000 1.0000000000 
-4.1946650071 0.0000000000 38.4354161469 0.8047378541 
-4.1315388602 0.0000000000 38.3722900000 0.8047378541 
-4.0422650071 0.0000000000 38.3722900000 1.0000000000 
0 
0 
0 
0 
0 
0 
0 
F 1.0000000000 F 0.0000000000 F 24.7892331614 F 0.0000000000} I I I I #
-285 spline-surface $-1 forward { exactsur full nurbs 3 3 both open open none none 2 2 
0.0000000000 3 1.0000000000 3 
0.0000000000 3 1.0000000000 3 
2.9246650071 0.0000000000 44.3666900000 1.0000000000 
3.6686137829 0.0000000000 44.3666900000 0.8047378541 
4.1946650071 0.0000000000 43.8406387758 0.8047378541 
4.1946650071 0.0000000000 43.0966900000 1.0000000000 
2.9246650071 5.8493300143 44.3666900000 0.3333333333 
3.6686137829 7.3372275659 44.3666900000 0.2682459514 
4.1946650071 8.3893300143 43.8406387758 0.2682459514 
4.1946650071 8.3893300143 43.0966900000 0.3333333333 
-2.9246650071 5.8493300143 44.3666900000 0.3333333333 
-3.6686137829 7.3372275659 44.3666900000 0.2682459514 
-4.1946650071 8.3893300143 43.8406387758 0.2682459514 
-4.1946650071 8.3893300143 43.0966900000 0.3333333333 
-2.9246650071 0.0000000000 44.3666900000 1.0000000000 
-3.6686137829 0.0000000000 44.3666900000 0.8047378541 
-4.1946650071 0.0000000000 43.8406387758 0.8047378541 
-4.1946650071 0.0000000000 43.0966900000 1.0000000000 
0 
0 
0 
0 
0 
0 
0 
F 1.0000000000 F 0.0000000000 F 1.0000000000 F 0.0000000000} I I I I #
-286 spline-surface $-1 forward { exactsur full nurbs 3 1 both open open none none 2 2 
0.0000000000 3 1.0000000000 3 
0.0000000000 1 1.0000000000 1 
-4.1946650071 0.0000000000 43.0966900000 1.0000000000 
-4.1946650071 8.3893300143 43.0966900000 0.3333333333 
4.1946650071 8.3893300143 43.0966900000 0.3333333333 
4.1946650071 0.0000000000 43.0966900000 1.0000000000 
-4.1946650071 0.0000000000 38.5246900000 1.0000000000 
-4.1946650071 8.3893300143 38.5246900000 0.3333333333 
4.1946650071 8.3893300143 38.5246900000 0.3333333333 
4.1946650071 0.0000000000 38.5246900000 1.0000000000 
0 
0 
0 
0 
0 
0 
0 
F 1.0000000000 F 0.0000000000 F 1.0000000000 F 0.0000000000} I I I I #
-287 spline-surface $-1 forward { exactsur full nurbs 3 1 both open open none none 2 2 
0.0000000000 3 1.0000000000 3 
0.0000000000 1 1.0000000000 1 
4.1946650071 0.0000000000 43.0966900000 1.0000000000 
4.1946650071 -8.3893300143 43.0966900000 0.3333333333 
-4.1946650071 -8.3893300143 43.0966900000 0.3333333333 
-4.1946650071 0.0000000000 43.0966900000 1.0000000000 
4.1946650071 0.0000000000 38.5246900000 1.0000000000 
4.1946650071 -8.3893300143 38.5246900000 0.3333333333 
-4.1946650071 -8.3893300143 38.5246900000 0.3333333333 
-4.1946650071 0.0000000000 38.5246900000 1.0000000000 
0 
0 
0 
0 
0 
0 
0 
F 1.0000000000 F 0.0000000000 F 1.0000000000 F 0.0000000000} I I I I #
-288 plane-surface $-1 0.0000000000 0.0000000000 44.3666900000 0.0000000000 0.0000000000 1.0000000000 1.0000000000 0.0000000000 0.0000000000 forward_v I I I I #
-289 plane-surface $-1 0.0000000000 0.0000000000 38.3722900000 0.0000000000 0.0000000000 1.0000000000 1.0000000000 0.0000000000 0.0000000000 forward_v I I I I #
-290 spline-surface $-1 forward { exactsur full nurbs 3 3 both open open none none 2 2 
0.0000000000 3 1.0000000000 3 
0.0000000000 3 1.0000000000 3 
-2.9246650071 0.0000000000 44.3666900000 1.0000000000 
-3.6686137829 0.0000000000 44.3666900000 0.8047378541 
-4.1946650071 0.0000000000 43.8406387758 0.8047378541 
-4.1946650071 0.0000000000 43.0966900000 1.0000000000 
-2.9246650071 -5.8493300143 44.3666900000 0.3333333333 
-3.6686137829 -7.3372275659 44.3666900000 0.2682459514 
-4.1946650071 -8.3893300143 43.8406387758 0.2682459514 
-4.1946650071 -8.3893300143 43.0966900000 0.3333333333 
2.9246650071 -5.8493300143 44.3666900000 0.3333333333 
3.6686137829 -7.3372275659 44.3666900000 0.2682459514 
4.1946650071 -8.3893300143 43.8406387758 0.2682459514 
4.1946650071 -8.3893300143 43.0966900000 0.3333333333 
2.9246650071 -0.0000000000 44.3666900000 1.0000000000 
3.6686137829 -0.0000000000 44.3666900000 0.8047378541 
4.1946650071 -0.0000000000 43.8406387758 0.8047378541 
4.1946650071 -0.0000000000 43.0966900000 1.0000000000 
0 
0 
0 
0 
0 
0 
0 
F 1.0000000000 F 0.0000000000 F 1.0000000000 F 0.0000000000} I I I I #
-291 spline-surface $-1 forward { exactsur full nurbs 3 3 both open open none none 2 2 
0.0000000000 3 1.0000000000 3 
0.0000000000 3 24.7892331614 3 
-4.1946650071 0.0000000000 38.5246900000 1.0000000000 
-4.1946650071 0.0000000000 38.4354161469 0.8047378541 
-4.1315388602 0.0000000000 38.3722900000 0.8047378541 
-4.0422650071 0.0000000000 38.3722900000 1.0000000000 
-4.1946650071 -8.3893300143 38.5246900000 0.3333333333 
-4.1946650071 -8.3893300143 38.4354161469 0.2682459514 
-4.1315388602 -8.2630777205 38.3722900000 0.2682459514 
-4.0422650071 -8.0845300143 38.3722900000 0.3333333333 
4.1946650071 -8.3893300143 38.5246900000 0.3333333333 
4.1946650071 -8.3893300143 38.4354161469 0.2682459514 
4.1315388602 -8.2630777205 38.3722900000 0.2682459514 
4.0422650071 -8.0845300143 38.3722900000 0.3333333333 
4.1946650071 -0.0000000000 38.5246900000 1.0000000000 
4.1946650071 -0.0000000000 38.4354161469 0.8047378541 
4.1315388602 -0.0000000000 38.3722900000 0.8047378541 
4.0422650071 -0.0000000000 38.3722900000 1.0000000000 
0 
0 
0 
0 
0 
0 
0 
F 1.0000000000 F 0.0000000000 F 24.7892331614 F 0.0000000000} I I I I #
-292 loop $-1 $-1 $300 $268 #
-293 loop $-1 $-1 $304 $270 #
-294 loop $-1 $-1 $308 $272 #
-295 loop $-1 $-1 $312 $274 #
-296 loop $-1 $-1 $316 $276 #
-297 loop $-1 $-1 $318 $278 #
-298 loop $-1 $-1 $320 $280 #
-299 loop $-1 $-1 $324 $282 #
-300 coedge $-1 $301 $303 $319 $352 reversed $292 $328 #
-301 coedge $-1 $302 $300 $324 $353 forward $292 $329 #
-302 coedge $-1 $303 $301 $310 $354 reversed $292 $330 #
-303 coedge $-1 $300 $302 $326 $355 reversed $292 $331 #
-304 coedge $-1 $305 $307 $308 $356 reversed $293 $332 #
-305 coedge $-1 $306 $304 $320 $357 forward $293 $333 #
-306 coedge $-1 $307 $305 $316 $358 reversed $293 $334 #
-307 coedge $-1 $304 $306 $322 $359 reversed $293 $335 #
-308 coedge $-1 $309 $311 $304 $356 forward $294 $336 #
-309 coedge $-1 $310 $308 $312 $360 forward $294 $337 #
-310 coedge $-1 $311 $309 $302 $354 forward $294 $338 #
-311 coedge $-1 $308 $310 $314 $361 reversed $294 $339 #
-312 coedge $-1 $313 $315 $309 $360 reversed $295 $340 #
-313 coedge $-1 $314 $312 $321 $362 forward $295 $341 #
-314 coedge $-1 $315 $313 $311 $361 forward $295 $342 #
-315 coedge $-1 $312 $314 $327 $363 forward $295 $343 #
-316 coedge $-1 $317 $317 $306 $358 forward $296 $-1 #
-317 coedge $-1 $316 $316 $323 $364 forward $296 $-1 #
-318 coedge $-1 $319 $319 $325 $365 forward $297 $-1 #
-319 coedge $-1 $318 $318 $300 $352 forward $297 $-1 #
-320 coedge $-1 $321 $323 $305 $357 reversed $298 $344 #
-321 coedge $-1 $322 $320 $313 $362 reversed $298 $345 #
-322 coedge $-1 $323 $321 $307 $359 forward $298 $346 #
-323 coedge $-1 $320 $322 $317 $364 reversed $298 $347 #
-324 coedge $-1 $325 $327 $301 $353 reversed $299 $348 #
-325 coedge $-1 $326 $324 $318 $365 reversed $299 $349 #
-326 coedge $-1 $327 $325 $303 $355 forward $299 $350 #
-327 coedge $-1 $324 $326 $315 $363 reversed $299 $351 #
-328 pcurve $-1 0 forward { exppc nubs 1 open 2
-24.789233161408010 1 -0.000000000000000 1 
1.000000000000000 0.000000000000000 
1.000000000000000 24.789233161408010 
0.00000000001
spline forward { ref 60 } I I I I
} 0 0 #
-329 pcurve $-1 0 forward { exppc nubs 1 open 2
0.000000000000000 1 1.000000000000000 1 
1.000000000000000 24.789233161408010 
0.000000000000000 24.789233161408010 
0.00000000001
spline forward { ref 60 } I I I I
} 0 0 #
-330 pcurve $-1 0 forward { exppc nubs 1 open 2
-24.789233161408010 1 -0.000000000000000 1 
0.000000000000000 24.789233161408010 
0.000000000000000 0.000000000000000 
0.00000000001
spline forward { ref 60 } I I I I
} 0 0 #
-331 pcurve $-1 0 forward { exppc nubs 1 open 2
-1.000000000000000 1 -0.000000000000000 1 
0.000000000000000 0.000000000000000 
1.000000000000000 0.000000000000000 
0.00000000001
spline forward { ref 60 } I I I I
} 0 0 #
-332 pcurve $-1 0 forward { exppc nubs 1 open 2
-1.000000000000000 1 -0.000000000000000 1 
1.000000000000000 0.000000000000000 
1.000000000000000 1.000000000000000 
0.00000000001
spline forward { ref 61 } I I I I
} 0 0 #
-333 pcurve $-1 0 forward { exppc nubs 1 open 2
0.000000000000000 1 1.000000000000000 1 
1.000000000000000 1.000000000000000 
0.000000000000000 1.000000000000000 
0.00000000001
spline forward { ref 61 } I I I I
} 0 0 #
-334 pcurve $-1 0 forward { exppc nubs 1 open 2
-1.000000000000000 1 -0.000000000000000 1 
0.000000000000000 1.000000000000000 
0.000000000000000 0.000000000000000 
0.00000000001
spline forward { ref 61 } I I I I
} 0 0 #
-335 pcurve $-1 0 forward { exppc nubs 1 open 2
-1.000000000000000 1 -0.000000000000000 1 
0.000000000000000 0.000000000000000 
1.000000000000000 0.000000000000000 
0.00000000001
spline forward { ref 61 } I I I I
} 0 0 #
-336 pcurve $-1 0 forward { exppc nubs 1 open 2
0.000000000000000 1 1.000000000000000 1 
0.000000000000000 0.000000000000000 
1.000000000000000 0.000000000000000 
0.00000000001
spline forward { ref 62 } I I I I
} 0 0 #
-337 pcurve $-1 0 forward { exppc nubs 1 open 2
0.000000000000000 1 1.000000000000000 1 
1.000000000000000 0.000000000000000 
1.000000000000000 1.000000000000000 
0.00000000001
spline forward { ref 62 } I I I I
} 0 0 #
-338 pcurve $-1 0 forward { exppc nubs 1 open 2
0.000000000000000 1 1.000000000000000 1 
1.000000000000000 1.000000000000000 
0.000000000000000 1.000000000000000 
0.00000000001
spline forward { ref 62 } I I I I
} 0 0 #
-339 pcurve $-1 0 forward { exppc nubs 1 open 2
-1.000000000000000 1 -0.000000000000000 1 
0.000000000000000 1.000000000000000 
0.000000000000000 0.000000000000000 
0.00000000001
spline forward { ref 62 } I I I I
} 0 0 #
-340 pcurve $-1 0 forward { exppc nubs 1 open 2
-1.000000000000000 1 -0.000000000000000 1 
0.000000000000000 1.000000000000000 
0.000000000000000 0.000000000000000 
0.00000000001
spline forward { ref 63 } I I I I
} 0 0 #
-341 pcurve $-1 0 forward { exppc nubs 1 open 2
0.000000000000000 1 1.000000000000000 1 
0.000000000000000 0.000000000000000 
1.000000000000000 0.000000000000000 
0.00000000001
spline forward { ref 63 } I I I I
} 0 0 #
-342 pcurve $-1 0 forward { exppc nubs 1 open 2
0.000000000000000 1 1.000000000000000 1 
1.000000000000000 0.000000000000000 
1.000000000000000 1.000000000000000 
0.00000000001
spline forward { ref 63 } I I I I
} 0 0 #
-343 pcurve $-1 0 forward { exppc nubs 1 open 2
0.000000000000000 1 1.000000000000000 1 
1.000000000000000 1.000000000000000 
0.000000000000000 1.000000000000000 
0.00000000001
spline forward { ref 63 } I I I I
} 0 0 #
-344 pcurve $-1 0 forward { exppc nubs 1 open 2
-1.000000000000000 1 -0.000000000000000 1 
0.000000000000000 0.000000000000000 
1.000000000000000 0.000000000000000 
0.00000000001
spline forward { ref 64 } I I I I
} 0 0 #
-345 pcurve $-1 0 forward { exppc nubs 1 open 2
-1.000000000000000 1 -0.000000000000000 1 
1.000000000000000 0.000000000000000 
1.000000000000000 1.000000000000000 
0.00000000001
spline forward { ref 64 } I I I I
} 0 0 #
-346 pcurve $-1 0 forward { exppc nubs 1 open 2
0.000000000000000 1 1.000000000000000 1 
1.000000000000000 1.000000000000000 
0.000000000000000 1.000000000000000 
0.00000000001
spline forward { ref 64 } I I I I
} 0 0 #
-347 pcurve $-1 0 forward { exppc nubs 1 open 2
-1.000000000000000 1 -0.000000000000000 1 
0.000000000000000 1.000000000000000 
0.000000000000000 0.000000000000000 
0.00000000001
spline forward { ref 64 } I I I I
} 0 0 #
-348 pcurve $-1 0 forward { exppc nubs 1 open 2
-1.000000000000000 1 -0.000000000000000 1 
0.000000000000000 0.000000000000000 
1.000000000000000 0.000000000000000 
0.00000000001
spline forward { ref 65 } I I I I
} 0 0 #
-349 pcurve $-1 0 forward { exppc nubs 1 open 2
-24.789233161408010 1 -0.000000000000000 1 
1.000000000000000 0.000000000000000 
1.000000000000000 24.789233161408010 
0.00000000001
spline forward { ref 65 } I I I I
} 0 0 #
-350 pcurve $-1 0 forward { exppc nubs 1 open 2
0.000000000000000 1 1.000000000000000 1 
1.000000000000000 24.789233161408010 
0.000000000000000 24.789233161408010 
0.00000000001
spline forward { ref 65 } I I I I
} 0 0 #
-351 pcurve $-1 0 forward { exppc nubs 1 open 2
-24.789233161408010 1 -0.000000000000000 1 
0.000000000000000 24.789233161408010 
0.000000000000000 0.000000000000000 
0.00000000001
spline forward { ref 65 } I I I I
} 0 0 #
-352 edge $-1 $367 3.1415926536 $369 6.2831853072 $300 $366 forward 7 unknown #
-353 edge $-1 $367 4.7123889804 $372 6.2831853072 $301 $371 forward 7 unknown #
-354 edge $-1 $375 0.0000000000 $372 3.1415926536 $302 $374 forward 7 unknown #
-355 edge $-1 $369 0.0000000000 $375 1.5707963268 $303 $377 forward 7 unknown #
-356 edge $-1 $379 3.1415926536 $381 6.2831853072 $304 $378 forward 7 unknown #
-357 edge $-1 $379 0.0000000000 $384 1.5707963268 $305 $383 forward 7 unknown #
-358 edge $-1 $387 0.0000000000 $384 3.1415926536 $306 $386 forward 7 unknown #
-359 edge $-1 $381 1.5707963268 $387 3.1415926536 $307 $389 forward 7 unknown #
-360 edge $-1 $381 0.0000000000 $375 4.5720000000 $309 $390 forward 7 unknown #
-361 edge $-1 $379 0.0000000000 $372 4.5720000000 $311 $391 forward 7 unknown #
-362 edge $-1 $381 0.0000000000 $379 3.1415926536 $313 $392 forward 7 unknown #
-363 edge $-1 $372 3.1415926536 $375 6.2831853072 $315 $393 forward 7 unknown #
-364 edge $-1 $384 3.1415926536 $387 6.2831853072 $317 $394 forward 7 unknown #
-365 edge $-1 $369 0.0000000000 $367 3.1415926536 $318 $395 forward 7 unknown #
-366 ellipse-curve $-1 0.000000000000000 0.000000000000000 38.372290000000007 0.000000000000000 0.000000000000000 -1.000000000000000 4.042265007140330 0.000000000000000 0.000000000000000 1.000000000000000 I I #
-367 vertex $-1 $352 $368 #
-368 point $-1 -4.042265007140330 0.000000000000001 38.372290000000007 #
-369 vertex $-1 $352 $370 #
-370 point $-1 4.042265007140330 0.000000000000000 38.372290000000007 #
-371 ellipse-curve $-1 -4.042265007140330 0.000000000000001 38.524690000000000 0.000000000000000 1.000000000000000 -0.000000000000000 -0.152400000000000 0.000000000000000 0.000000000000000 1.000000000000000 I I #
-372 vertex $-1 $353 $373 #
-373 point $-1 -4.194665007140330 0.000000000000000 38.524690000000000 #
-374 ellipse-curve $-1 0.000000000000000 0.000000000000000 38.524690000000000 0.000000000000000 0.000000000000000 1.000000000000000 4.194665007140330 0.000000000000000 0.000000000000000 1.000000000000000 I I #
-375 vertex $-1 $354 $376 #
-376 point $-1 4.194665007140330 0.000000000000001 38.524690000000000 #
-377 ellipse-curve $-1 4.042265007140330 0.000000000000000 38.524690000000000 0.000000000000000 -1.000000000000000 0.000000000000000 0.000000000000000 -0.000000000000000 -0.152400000000000 1.000000000000000 I I #
-378 ellipse-curve $-1 0.000000000000000 0.000000000000000 43.096690000000002 0.000000000000000 0.000000000000000 -1.000000000000000 4.194665007140330 0.000000000000000 0.000000000000000 1.000000000000000 I I #
-379 vertex $-1 $356 $380 #
-380 point $-1 -4.194665007140330 0.000000000000000 43.096690000000002 #
-381 vertex $-1 $356 $382 #
-382 point $-1 4.194665007140330 0.000000000000001 43.096690000000002 #
-383 ellipse-curve $-1 -2.924665007140330 0.000000000000001 43.096690000000002 0.000000000000000 1.000000000000000 -0.000000000000000 -1.270000000000000 0.000000000000000 0.000000000000000 1.000000000000000 I I #
-384 vertex $-1 $357 $385 #
-385 point $-1 -2.924665007140330 0.000000000000001 44.366689999999998 #
-386 ellipse-curve $-1 0.000000000000000 0.000000000000000 44.366689999999998 0.000000000000000 0.000000000000000 1.000000000000000 2.924665007140330 0.000000000000000 0.000000000000000 1.000000000000000 I I #
-387 vertex $-1 $358 $388 #
-388 point $-1 2.924665007140330 0.000000000000000 44.366689999999998 #
-389 ellipse-curve $-1 2.924665007140330 0.000000000000000 43.096690000000002 0.000000000000000 -1.000000000000000 0.000000000000000 0.000000000000000 -0.000000000000000 -1.270000000000000 1.000000000000000 I I #
-390 straight-curve $-1 4.194665007140330 0.000000000000001 43.096690000000002 0.000000000000000 0.000000000000000 -1.000000000000000 I I #
-391 straight-curve $-1 -4.194665007140330 0.000000000000000 43.096690000000002 0.000000000000000 0.000000000000000 -1.000000000000000 I I #
-392 ellipse-curve $-1 0.000000000000000 0.000000000000000 43.096690000000002 0.000000000000000 0.000000000000000 -1.000000000000000 4.194665007140330 0.000000000000000 0.000000000000000 1.000000000000000 I I #
-393 ellipse-curve $-1 0.000000000000000 0.000000000000000 38.524690000000000 0.000000000000000 0.000000000000000 1.000000000000000 4.194665007140330 0.000000000000000 0.000000000000000 1.000000000000000 I I #
-394 ellipse-curve $-1 0.000000000000000 0.000000000000000 44.366689999999998 0.000000000000000 0.000000000000000 1.000000000000000 2.924665007140330 0.000000000000000 0.000000000000000 1.000000000000000 I I #
-395 ellipse-curve $-1 0.000000000000000 0.000000000000000 38.372290000000007 0.000000000000000 0.000000000000000 -1.000000000000000 4.042265007140330 0.000000000000000 0.000000000000000 1.000000000000000 I I #
End-of-ACIS-data 